<svg xmlns="http://www.w3.org/2000/svg" xmlns:xlink="http://www.w3.org/1999/xlink" width="500" zoomAndPan="magnify" viewBox="0 0 375 374.999991" height="500" preserveAspectRatio="xMidYMid meet" version="1.0"><defs><clipPath id="19afff8caa"><path d="M 133 169 L 154 169 L 154 187.5 L 133 187.5 Z M 133 169 " clip-rule="nonzero"/></clipPath><clipPath id="9b1231349f"><path d="M 173 0 L 187.5 0 L 187.5 11 L 173 11 Z M 173 0 " clip-rule="nonzero"/></clipPath><clipPath id="361db8dcc7"><path d="M 0 0 L 187.5 0 L 187.5 187.5 L 0 187.5 Z M 0 0 " clip-rule="nonzero"/></clipPath><clipPath id="a207248512"><path d="M 181 115 L 187.5 115 L 187.5 129 L 181 129 Z M 181 115 " clip-rule="nonzero"/></clipPath><clipPath id="bce6828d2f"><path d="M 320 169 L 341 169 L 341 187.5 L 320 187.5 Z M 320 169 " clip-rule="nonzero"/></clipPath><clipPath id="2064a4cd01"><path d="M 187.5 0 L 227 0 L 227 20 L 187.5 20 Z M 187.5 0 " clip-rule="nonzero"/></clipPath><clipPath id="4c8c344c0e"><path d="M 187.5 0 L 375 0 L 375 187.5 L 187.5 187.5 Z M 187.5 0 " clip-rule="nonzero"/></clipPath><clipPath id="c08da448e7"><path d="M 0 187.5 L 39 187.5 L 39 208 L 0 208 Z M 0 187.5 " clip-rule="nonzero"/></clipPath><clipPath id="57383b9dde"><path d="M 173 187.5 L 187.5 187.5 L 187.5 199 L 173 199 Z M 173 187.5 " clip-rule="nonzero"/></clipPath><clipPath id="3fc727058b"><path d="M 0 187.5 L 187.5 187.5 L 187.5 375 L 0 375 Z M 0 187.5 " clip-rule="nonzero"/></clipPath><clipPath id="cef56f11fb"><path d="M 181 302 L 187.5 302 L 187.5 317 L 181 317 Z M 181 302 " clip-rule="nonzero"/></clipPath><clipPath id="546d015bc4"><path d="M 187.5 187.5 L 227 187.5 L 227 208 L 187.5 208 Z M 187.5 187.5 " clip-rule="nonzero"/></clipPath><clipPath id="da1184ca08"><path d="M 361 187.5 L 375 187.5 L 375 199 L 361 199 Z M 361 187.5 " clip-rule="nonzero"/></clipPath><clipPath id="6bee30e2b2"><path d="M 187.5 187.5 L 375 187.5 L 375 375 L 187.5 375 Z M 187.5 187.5 " clip-rule="nonzero"/></clipPath></defs><rect x="-37.5" width="450" fill="#ffffff" y="-37.499999" height="449.999989" fill-opacity="1"/><rect x="-37.5" width="450" fill="#1e1e1e" y="-37.499999" height="449.999989" fill-opacity="1"/><g clip-path="url(#19afff8caa)"><path fill="#00bf63" d="M 148.113281 169.59375 C 148.085938 169.578125 148.054688 169.574219 148.019531 169.582031 L 133.417969 173.566406 C 133.386719 173.578125 133.359375 173.597656 133.339844 173.625 C 133.324219 173.65625 133.320312 173.6875 133.328125 173.71875 L 137.089844 187.5 L 137.347656 187.5 L 133.601562 173.777344 L 147.964844 169.855469 L 152.777344 187.5 L 153.035156 187.5 L 148.171875 169.671875 C 148.164062 169.636719 148.144531 169.613281 148.113281 169.59375 " fill-opacity="1" fill-rule="nonzero"/></g><path fill="#00bf63" d="M 14.621094 19.953125 C 14.660156 19.953125 14.703125 19.933594 14.726562 19.894531 L 22.542969 7.464844 L 38.726562 0 L 38.128906 0 L 22.785156 7.078125 L 27.238281 0 L 26.941406 0 L 22.371094 7.269531 L 16.265625 10.085938 L 11.613281 0 L 11.339844 0 L 16.089844 10.300781 C 16.113281 10.347656 16.160156 10.375 16.203125 10.375 C 16.222656 10.375 16.242188 10.371094 16.257812 10.363281 L 22.125 7.65625 L 14.582031 19.65625 L 0 10.488281 L 0 10.78125 L 14.554688 19.933594 C 14.574219 19.945312 14.597656 19.953125 14.621094 19.953125 " fill-opacity="1" fill-rule="nonzero"/><g clip-path="url(#9b1231349f)"><path fill="#00bf63" d="M 174.140625 2.085938 L 175.449219 0 L 175.15625 0 L 173.859375 2.058594 C 173.84375 2.085938 173.835938 2.117188 173.84375 2.152344 C 173.851562 2.183594 173.875 2.210938 173.898438 2.230469 L 187.5 10.78125 L 187.5 10.488281 L 174.140625 2.085938 " fill-opacity="1" fill-rule="nonzero"/></g><g clip-path="url(#361db8dcc7)"><path fill="#00bf63" d="M 184.152344 15.183594 C 184.121094 15.179688 184.085938 15.191406 184.0625 15.210938 L 174.785156 23.121094 L 163.222656 13.789062 L 168.25 0 L 167.984375 0 L 163.015625 13.621094 L 155.011719 7.167969 L 153.054688 0 L 152.796875 0 L 154.679688 6.898438 L 150.472656 3.503906 C 150.445312 3.484375 150.414062 3.472656 150.378906 3.476562 C 150.347656 3.480469 150.316406 3.496094 150.296875 3.523438 L 141.351562 14.609375 L 137.367188 0 L 137.109375 0 L 141.160156 14.851562 L 134.941406 22.554688 L 107.601562 12.582031 L 112.191406 0 L 111.921875 0 L 107.320312 12.613281 C 107.3125 12.644531 107.3125 12.679688 107.324219 12.710938 C 107.339844 12.738281 107.367188 12.761719 107.398438 12.773438 L 134.777344 22.761719 L 127.1875 32.167969 C 127.144531 32.21875 127.15625 32.300781 127.207031 32.34375 L 146.097656 47.582031 L 141.253906 51.714844 L 110.871094 21.882812 C 110.824219 21.835938 110.742188 21.835938 110.695312 21.882812 L 107.613281 25.023438 L 94.207031 0 L 93.925781 0 L 107.429688 25.210938 L 85.945312 47.09375 L 78.261719 32.753906 L 93.832031 19.476562 C 93.882812 19.429688 93.890625 19.351562 93.84375 19.300781 L 77.390625 0 L 77.058594 0 L 93.574219 19.367188 L 78.140625 32.527344 L 60.710938 0 L 60.429688 0 L 77.945312 32.691406 L 69.132812 40.207031 L 47.058594 18.601562 C 47.007812 18.554688 46.929688 18.554688 46.882812 18.605469 L 28.738281 37.144531 L 20.6875 27.703125 L 53.175781 0 L 52.792969 0 L 20.429688 27.59375 C 20.402344 27.617188 20.386719 27.648438 20.386719 27.679688 C 20.382812 27.714844 20.394531 27.746094 20.417969 27.769531 L 28.5625 37.324219 L 18.117188 48 L 6.292969 38.460938 L 12.140625 33.472656 C 12.167969 33.453125 12.183594 33.421875 12.1875 33.386719 C 12.1875 33.355469 12.179688 33.324219 12.15625 33.296875 L 0 19.039062 L 0 19.425781 L 11.886719 33.363281 L 6.097656 38.300781 L 0 33.382812 L 0 33.703125 L 5.902344 38.464844 L 0 43.5 L 0 43.828125 L 6.101562 38.625 L 17.941406 48.179688 L 0 66.511719 L 0 66.867188 L 18.136719 48.335938 L 24.183594 53.214844 L 1.230469 81.664062 L 0 80.667969 L 0 80.992188 L 1.171875 81.9375 C 1.195312 81.953125 1.222656 81.960938 1.25 81.960938 C 1.285156 81.960938 1.320312 81.945312 1.347656 81.917969 L 24.457031 53.273438 C 24.476562 53.25 24.484375 53.214844 24.484375 53.183594 C 24.480469 53.148438 24.464844 53.117188 24.4375 53.097656 L 18.3125 48.15625 L 28.722656 37.515625 L 47.144531 59.121094 C 47.171875 59.148438 47.207031 59.164062 47.242188 59.164062 C 47.269531 59.164062 47.296875 59.152344 47.324219 59.132812 L 69.121094 40.542969 L 74.640625 45.945312 L 37.078125 84.324219 L 24.019531 76.285156 C 23.960938 76.25 23.882812 76.269531 23.847656 76.328125 L 6.515625 104.480469 L 0 98.105469 L 0 98.453125 L 6.382812 104.699219 L 0 115.066406 L 0 115.542969 L 6.566406 104.878906 L 11.964844 110.164062 C 11.992188 110.1875 12.023438 110.199219 12.054688 110.199219 C 12.085938 110.199219 12.121094 110.1875 12.144531 110.164062 L 37.117188 84.644531 L 46.601562 90.480469 L 30.214844 101.464844 C 30.1875 101.484375 30.167969 101.511719 30.164062 101.546875 C 30.15625 101.578125 30.164062 101.609375 30.179688 101.640625 L 37.273438 112.21875 L 7.578125 133.214844 L 0 128.550781 L 0 128.84375 L 7.355469 133.371094 L 0 138.574219 L 0 138.878906 L 7.585938 133.515625 L 17.683594 139.730469 L 0 167.847656 L 0 168.320312 L 17.894531 139.859375 L 36.386719 151.242188 L 0 176.972656 L 0 177.277344 L 36.621094 151.386719 L 46.003906 157.164062 L 39.804688 167.019531 L 38.613281 164.4375 C 38.585938 164.375 38.511719 164.34375 38.445312 164.375 L 7.414062 178.6875 C 7.382812 178.703125 7.359375 178.726562 7.347656 178.757812 C 7.335938 178.789062 7.335938 178.824219 7.351562 178.855469 L 11.339844 187.5 L 11.613281 187.5 L 7.628906 178.863281 L 38.441406 164.65625 L 39.648438 167.273438 L 26.925781 187.5 L 27.222656 187.5 L 39.773438 167.542969 L 47.078125 183.371094 L 38.125 187.5 L 38.71875 187.5 L 47.292969 183.542969 C 47.324219 183.53125 47.347656 183.503906 47.359375 183.476562 C 47.371094 183.445312 47.371094 183.410156 47.355469 183.378906 L 39.929688 167.292969 L 46.21875 157.292969 L 62.808594 167.507812 L 52.75 172.898438 C 52.722656 172.914062 52.699219 172.9375 52.6875 172.972656 C 52.679688 173.003906 52.683594 173.035156 52.699219 173.066406 L 58.035156 183.027344 L 52.789062 187.5 L 53.175781 187.5 L 58.15625 183.25 L 60.433594 187.5 L 60.714844 187.5 L 58.351562 183.085938 L 67.003906 175.707031 L 77.0625 187.5 L 77.390625 187.5 L 67.113281 175.449219 C 67.09375 175.421875 67.0625 175.40625 67.027344 175.40625 C 66.996094 175.402344 66.960938 175.414062 66.9375 175.433594 L 58.230469 182.859375 L 52.976562 173.058594 L 63.054688 167.660156 L 85.476562 181.460938 C 85.496094 181.472656 85.515625 181.476562 85.539062 181.476562 C 85.582031 181.476562 85.625 181.457031 85.648438 181.417969 L 88.332031 177.058594 L 93.929688 187.5 L 94.210938 187.5 L 88.484375 176.808594 L 101.375 155.871094 L 119.304688 167.253906 L 111.917969 187.5 L 112.183594 187.5 L 119.519531 167.390625 L 126.914062 172.089844 C 126.933594 172.101562 126.957031 172.109375 126.980469 172.109375 C 127.023438 172.109375 127.0625 172.085938 127.085938 172.050781 L 135.144531 159.363281 L 143.828125 164.597656 C 143.847656 164.605469 143.871094 164.613281 143.890625 164.613281 C 143.902344 164.613281 143.914062 164.613281 143.921875 164.609375 C 143.953125 164.601562 143.980469 164.582031 144 164.554688 L 157.496094 142.152344 L 173.941406 148.148438 L 163.332031 155.652344 C 163.277344 155.691406 163.261719 155.769531 163.304688 155.824219 L 174.011719 170.964844 L 167.980469 187.5 L 168.246094 187.5 L 174.1875 171.214844 L 180.117188 179.605469 L 175.152344 187.5 L 175.449219 187.5 L 180.273438 179.828125 L 181.40625 181.425781 C 181.429688 181.460938 181.46875 181.476562 181.507812 181.476562 C 181.53125 181.476562 181.558594 181.472656 181.578125 181.453125 L 187.5 177.269531 L 187.5 176.960938 L 181.535156 181.179688 L 180.417969 179.597656 L 187.5 168.335938 L 187.5 167.867188 L 180.261719 179.375 L 174.289062 170.929688 L 181.625 150.820312 C 181.636719 150.789062 181.632812 150.753906 181.621094 150.722656 C 181.605469 150.691406 181.582031 150.671875 181.550781 150.65625 L 174.476562 148.078125 L 187.5 138.871094 L 187.5 138.5625 L 174.191406 147.976562 L 157.628906 141.933594 L 171.800781 118.417969 C 171.835938 118.359375 171.816406 118.285156 171.757812 118.25 L 164.160156 113.667969 L 169.679688 104.976562 C 169.699219 104.949219 169.707031 104.914062 169.699219 104.882812 C 169.691406 104.851562 169.671875 104.824219 169.640625 104.804688 L 134.863281 82.722656 C 134.808594 82.683594 134.730469 82.703125 134.691406 82.757812 L 128.652344 92.269531 L 120.542969 87.382812 L 136.476562 71.15625 L 144.378906 80.421875 C 144.398438 80.449219 144.429688 80.460938 144.460938 80.464844 C 144.464844 80.464844 144.46875 80.464844 144.472656 80.464844 C 144.503906 80.464844 144.53125 80.457031 144.554688 80.4375 L 165.101562 62.914062 L 179.582031 74.597656 L 171.613281 82.738281 C 171.589844 82.761719 171.578125 82.792969 171.578125 82.828125 C 171.578125 82.859375 171.59375 82.894531 171.617188 82.914062 L 187.5 98.457031 L 187.5 98.109375 L 171.882812 82.824219 L 179.777344 74.753906 L 187.5 80.984375 L 187.5 80.664062 L 179.953125 74.574219 L 187.5 66.863281 L 187.5 66.507812 L 179.757812 74.417969 L 165.296875 62.75 L 187.5 43.816406 L 187.5 43.488281 L 165.097656 62.589844 L 146.492188 47.578125 L 174.792969 23.445312 L 187.5 33.699219 L 187.5 33.378906 L 174.984375 23.28125 L 184.128906 15.484375 L 187.5 19.4375 L 187.5 19.050781 L 184.238281 15.226562 C 184.214844 15.203125 184.1875 15.183594 184.152344 15.183594 Z M 47.253906 58.863281 L 28.898438 37.335938 L 46.972656 18.871094 L 68.941406 40.371094 Z M 12.050781 109.898438 L 6.699219 104.660156 L 23.996094 76.566406 L 36.898438 84.507812 Z M 174.226562 148.253906 L 181.347656 150.851562 L 174.113281 170.679688 L 163.578125 155.785156 Z M 150.414062 3.777344 L 154.792969 7.3125 L 157.050781 15.585938 L 142.6875 19.503906 L 141.433594 14.90625 Z M 141.242188 15.148438 L 142.480469 19.691406 C 142.488281 19.722656 142.507812 19.75 142.539062 19.769531 C 142.558594 19.777344 142.578125 19.785156 142.601562 19.785156 C 142.613281 19.785156 142.625 19.78125 142.632812 19.78125 L 157.234375 15.796875 C 157.269531 15.789062 157.296875 15.765625 157.3125 15.734375 C 157.328125 15.707031 157.332031 15.671875 157.324219 15.640625 L 155.125 7.578125 L 162.925781 13.871094 L 156.84375 30.542969 L 135.191406 22.644531 Z M 107.554688 25.441406 L 118.058594 45.050781 L 92.253906 58.875 L 86.066406 47.324219 Z M 37.296875 84.460938 L 74.90625 46.03125 C 74.929688 46.003906 74.941406 45.972656 74.941406 45.941406 C 74.941406 45.90625 74.925781 45.875 74.902344 45.851562 L 69.3125 40.382812 L 78.066406 32.917969 L 85.757812 47.277344 L 60.417969 73.089844 C 60.394531 73.113281 60.378906 73.144531 60.378906 73.175781 C 60.378906 73.210938 60.394531 73.242188 60.417969 73.265625 L 65.234375 77.992188 L 46.828125 90.328125 Z M 95.433594 94.5625 L 80.886719 72.863281 L 84.902344 66.195312 L 120.144531 87.433594 L 98.085938 109.898438 L 87.820312 99.820312 L 95.398438 94.738281 C 95.425781 94.71875 95.445312 94.691406 95.453125 94.65625 C 95.460938 94.625 95.453125 94.59375 95.433594 94.5625 Z M 95.15625 94.597656 L 87.636719 99.640625 L 73.257812 85.523438 L 80.746094 73.097656 Z M 99.769531 137.75 L 63.679688 116 L 75.347656 108.179688 L 106.410156 127.296875 Z M 106.621094 127.429688 L 115.300781 132.769531 L 108.863281 143.230469 L 99.984375 137.878906 Z M 63.441406 115.855469 L 57.234375 112.117188 L 63.863281 101.109375 L 75.113281 108.035156 Z M 75.34375 107.878906 L 63.992188 100.894531 L 73.125 85.742188 L 87.425781 99.78125 Z M 73.074219 85.339844 L 65.628906 78.03125 L 78.339844 69.511719 L 80.589844 72.871094 Z M 72.941406 85.5625 L 63.78125 100.761719 L 47.0625 90.472656 L 65.417969 78.171875 Z M 30.460938 101.605469 L 46.835938 90.625 L 63.652344 100.976562 L 56.953125 112.09375 C 56.917969 112.152344 56.9375 112.230469 56.996094 112.265625 L 63.210938 116.011719 L 55.4375 121.222656 L 45.210938 106.757812 C 45.191406 106.730469 45.164062 106.710938 45.128906 106.707031 C 45.097656 106.703125 45.0625 106.707031 45.035156 106.726562 L 37.476562 112.074219 Z M 55.230469 121.363281 L 47.273438 126.695312 L 37.613281 112.28125 L 45.078125 107.003906 Z M 17.816406 139.515625 L 7.808594 133.355469 L 37.410156 112.425781 L 47.136719 126.9375 C 47.160156 126.972656 47.203125 126.992188 47.242188 126.992188 C 47.265625 126.992188 47.289062 126.984375 47.3125 126.972656 L 55.375 121.566406 L 63.035156 132.402344 L 47.722656 143.230469 L 24.722656 128.765625 C 24.695312 128.75 24.660156 128.742188 24.628906 128.75 C 24.597656 128.757812 24.566406 128.777344 24.550781 128.808594 Z M 36.609375 151.085938 L 18.027344 139.648438 L 24.695312 129.046875 L 47.5 143.386719 Z M 46.136719 156.949219 L 36.84375 151.230469 L 47.730469 143.53125 L 52.636719 146.617188 Z M 85.5 181.179688 L 63.3125 167.523438 L 78.78125 159.234375 L 88.195312 176.800781 Z M 88.347656 176.554688 L 78.945312 159.003906 C 78.914062 158.945312 78.835938 158.921875 78.777344 158.953125 L 63.066406 167.371094 L 46.351562 157.082031 L 52.914062 146.644531 C 52.933594 146.613281 52.9375 146.582031 52.929688 146.550781 C 52.921875 146.515625 52.902344 146.488281 52.875 146.472656 L 47.949219 143.375 L 63.28125 132.535156 C 63.339844 132.492188 63.351562 132.414062 63.3125 132.359375 L 55.582031 121.425781 L 63.449219 116.152344 L 99.636719 137.960938 L 92.097656 149.832031 C 92.082031 149.859375 92.074219 149.894531 92.082031 149.925781 C 92.089844 149.960938 92.109375 149.988281 92.136719 150.007812 L 101.164062 155.738281 Z M 101.296875 155.523438 L 92.375 149.863281 L 99.851562 138.09375 L 108.730469 143.445312 Z M 119.390625 167.015625 L 101.503906 155.65625 L 108.945312 143.574219 L 124.519531 152.957031 Z M 126.941406 171.808594 L 119.605469 167.152344 L 124.734375 153.089844 L 134.929688 159.234375 Z M 135.0625 159.023438 L 124.824219 152.851562 L 132.101562 132.890625 L 147.980469 138.679688 Z M 143.847656 164.316406 L 135.277344 159.152344 L 148.222656 138.769531 L 157.257812 142.066406 Z M 171.523438 118.398438 L 157.390625 141.847656 L 148.359375 138.554688 L 164.027344 113.878906 Z M 134.835938 83 L 169.402344 104.949219 L 163.949219 113.539062 L 128.867188 92.398438 Z M 128.734375 92.609375 L 163.8125 113.75 L 148.117188 138.464844 L 132.074219 132.613281 C 132.007812 132.589844 131.9375 132.625 131.910156 132.6875 L 124.605469 152.71875 L 109.078125 143.359375 L 115.578125 132.796875 C 115.597656 132.765625 115.601562 132.734375 115.59375 132.703125 C 115.585938 132.667969 115.566406 132.640625 115.539062 132.625 L 106.753906 127.21875 Z M 128.519531 92.480469 L 106.542969 127.085938 L 75.578125 108.023438 L 87.605469 99.960938 L 98 110.164062 C 98.023438 110.1875 98.054688 110.199219 98.085938 110.199219 C 98.117188 110.199219 98.152344 110.1875 98.175781 110.164062 L 120.363281 87.566406 Z M 120.324219 87.25 L 84.925781 65.917969 C 84.898438 65.902344 84.863281 65.894531 84.832031 65.902344 C 84.800781 65.910156 84.773438 65.929688 84.753906 65.960938 L 80.734375 72.632812 L 78.476562 69.265625 C 78.4375 69.210938 78.359375 69.195312 78.304688 69.234375 L 65.445312 77.851562 L 60.683594 73.171875 L 85.882812 47.507812 L 92.09375 59.101562 C 92.117188 59.144531 92.160156 59.167969 92.203125 59.167969 C 92.222656 59.167969 92.246094 59.164062 92.261719 59.152344 L 118.289062 45.210938 C 118.316406 45.195312 118.339844 45.167969 118.347656 45.136719 C 118.359375 45.105469 118.355469 45.070312 118.339844 45.042969 L 107.738281 25.253906 L 110.785156 22.148438 L 141.0625 51.878906 L 128.984375 62.175781 C 128.933594 62.21875 128.925781 62.300781 128.972656 62.351562 L 136.316406 70.964844 Z M 129.242188 62.285156 L 141.242188 52.054688 L 148.1875 58.875 L 136.492188 70.785156 Z M 164.90625 62.753906 L 144.488281 80.164062 L 136.652344 70.976562 L 148.453125 58.960938 C 148.5 58.910156 148.5 58.832031 148.449219 58.78125 L 141.433594 51.890625 L 146.296875 47.742188 Z M 146.292969 47.417969 L 127.460938 32.226562 L 135.027344 22.851562 L 156.875 30.820312 C 156.890625 30.828125 156.902344 30.828125 156.917969 30.828125 C 156.96875 30.828125 157.019531 30.796875 157.035156 30.746094 L 163.128906 14.039062 L 174.59375 23.285156 L 146.292969 47.417969 " fill-opacity="1" fill-rule="nonzero"/></g><g clip-path="url(#a207248512)"><path fill="#00bf63" d="M 181.441406 125.125 L 187.5 128.855469 L 187.5 128.558594 L 181.675781 124.976562 L 187.5 115.515625 L 187.5 115.042969 L 181.398438 124.949219 C 181.363281 125.007812 181.382812 125.085938 181.441406 125.125 " fill-opacity="1" fill-rule="nonzero"/></g><g clip-path="url(#bce6828d2f)"><path fill="#00bf63" d="M 335.613281 169.59375 C 335.585938 169.578125 335.554688 169.574219 335.519531 169.582031 L 320.917969 173.566406 C 320.886719 173.578125 320.859375 173.597656 320.839844 173.625 C 320.824219 173.65625 320.820312 173.6875 320.828125 173.71875 L 324.589844 187.5 L 324.847656 187.5 L 321.101562 173.777344 L 335.464844 169.855469 L 340.277344 187.5 L 340.535156 187.5 L 335.671875 169.671875 C 335.664062 169.636719 335.644531 169.613281 335.613281 169.59375 " fill-opacity="1" fill-rule="nonzero"/></g><g clip-path="url(#2064a4cd01)"><path fill="#00bf63" d="M 202.121094 19.953125 C 202.160156 19.953125 202.203125 19.933594 202.226562 19.894531 L 210.042969 7.464844 L 226.226562 0 L 225.628906 0 L 210.285156 7.078125 L 214.738281 0 L 214.441406 0 L 209.871094 7.269531 L 203.765625 10.085938 L 199.113281 0 L 198.835938 0 L 203.589844 10.300781 C 203.613281 10.347656 203.660156 10.375 203.703125 10.375 C 203.722656 10.375 203.738281 10.371094 203.757812 10.363281 L 209.625 7.65625 L 202.082031 19.65625 L 187.5 10.488281 L 187.5 10.78125 L 202.054688 19.933594 C 202.074219 19.945312 202.097656 19.953125 202.121094 19.953125 " fill-opacity="1" fill-rule="nonzero"/></g><path fill="#00bf63" d="M 361.640625 2.085938 L 362.949219 0 L 362.65625 0 L 361.359375 2.058594 C 361.34375 2.085938 361.335938 2.117188 361.34375 2.152344 C 361.351562 2.183594 361.375 2.210938 361.398438 2.230469 L 375 10.78125 L 375 10.488281 L 361.640625 2.085938 " fill-opacity="1" fill-rule="nonzero"/><g clip-path="url(#4c8c344c0e)"><path fill="#00bf63" d="M 371.652344 15.183594 C 371.621094 15.179688 371.585938 15.191406 371.5625 15.210938 L 362.285156 23.121094 L 350.722656 13.789062 L 355.75 0 L 355.484375 0 L 350.515625 13.621094 L 342.511719 7.167969 L 340.554688 0 L 340.296875 0 L 342.179688 6.898438 L 337.972656 3.503906 C 337.945312 3.484375 337.914062 3.472656 337.878906 3.476562 C 337.847656 3.480469 337.816406 3.496094 337.796875 3.523438 L 328.851562 14.609375 L 324.867188 0 L 324.609375 0 L 328.660156 14.851562 L 322.441406 22.554688 L 295.101562 12.582031 L 299.691406 0 L 299.421875 0 L 294.820312 12.613281 C 294.8125 12.644531 294.8125 12.679688 294.824219 12.710938 C 294.839844 12.738281 294.867188 12.761719 294.898438 12.773438 L 322.277344 22.761719 L 314.6875 32.167969 C 314.644531 32.21875 314.65625 32.300781 314.707031 32.34375 L 333.597656 47.582031 L 328.753906 51.714844 L 298.371094 21.882812 C 298.324219 21.835938 298.242188 21.835938 298.195312 21.882812 L 295.113281 25.023438 L 281.707031 0 L 281.425781 0 L 294.929688 25.210938 L 273.445312 47.09375 L 265.761719 32.753906 L 281.332031 19.476562 C 281.382812 19.429688 281.390625 19.351562 281.34375 19.300781 L 264.890625 0 L 264.558594 0 L 281.074219 19.367188 L 265.640625 32.527344 L 248.210938 0 L 247.929688 0 L 265.445312 32.691406 L 256.632812 40.207031 L 234.558594 18.601562 C 234.507812 18.554688 234.429688 18.554688 234.382812 18.605469 L 216.238281 37.144531 L 208.1875 27.703125 L 240.675781 0 L 240.292969 0 L 207.929688 27.59375 C 207.902344 27.617188 207.886719 27.648438 207.886719 27.679688 C 207.882812 27.714844 207.894531 27.746094 207.917969 27.769531 L 216.0625 37.324219 L 205.617188 48 L 193.792969 38.460938 L 199.640625 33.472656 C 199.667969 33.453125 199.683594 33.421875 199.6875 33.386719 C 199.6875 33.355469 199.675781 33.324219 199.65625 33.296875 L 187.5 19.039062 L 187.5 19.425781 L 199.382812 33.363281 L 193.597656 38.300781 L 187.5 33.382812 L 187.5 33.703125 L 193.402344 38.464844 L 187.5 43.5 L 187.5 43.828125 L 193.601562 38.625 L 205.441406 48.179688 L 187.5 66.511719 L 187.5 66.867188 L 205.636719 48.335938 L 211.683594 53.214844 L 188.730469 81.664062 L 187.5 80.667969 L 187.5 80.992188 L 188.671875 81.9375 C 188.695312 81.953125 188.722656 81.960938 188.75 81.960938 C 188.785156 81.960938 188.820312 81.945312 188.847656 81.917969 L 211.957031 53.273438 C 211.976562 53.25 211.984375 53.214844 211.980469 53.183594 C 211.980469 53.148438 211.960938 53.117188 211.9375 53.097656 L 205.8125 48.15625 L 216.222656 37.515625 L 234.644531 59.121094 C 234.671875 59.148438 234.707031 59.164062 234.742188 59.164062 C 234.769531 59.164062 234.796875 59.152344 234.824219 59.132812 L 256.621094 40.542969 L 262.140625 45.945312 L 224.578125 84.324219 L 211.519531 76.285156 C 211.460938 76.25 211.382812 76.269531 211.347656 76.328125 L 194.015625 104.480469 L 187.5 98.105469 L 187.5 98.453125 L 193.882812 104.699219 L 187.5 115.066406 L 187.5 115.542969 L 194.066406 104.878906 L 199.464844 110.164062 C 199.492188 110.1875 199.523438 110.199219 199.554688 110.199219 C 199.585938 110.199219 199.617188 110.1875 199.644531 110.164062 L 224.617188 84.644531 L 234.101562 90.480469 L 217.714844 101.464844 C 217.6875 101.484375 217.667969 101.511719 217.664062 101.546875 C 217.65625 101.578125 217.664062 101.609375 217.679688 101.640625 L 224.773438 112.21875 L 195.078125 133.214844 L 187.5 128.550781 L 187.5 128.84375 L 194.855469 133.371094 L 187.5 138.574219 L 187.5 138.878906 L 195.085938 133.515625 L 205.183594 139.730469 L 187.5 167.847656 L 187.5 168.320312 L 205.394531 139.859375 L 223.886719 151.242188 L 187.5 176.972656 L 187.5 177.277344 L 224.121094 151.386719 L 233.503906 157.164062 L 227.304688 167.019531 L 226.113281 164.4375 C 226.085938 164.375 226.011719 164.34375 225.945312 164.375 L 194.910156 178.6875 C 194.882812 178.703125 194.859375 178.726562 194.847656 178.757812 C 194.835938 178.789062 194.835938 178.824219 194.851562 178.855469 L 198.839844 187.5 L 199.113281 187.5 L 195.128906 178.863281 L 225.941406 164.65625 L 227.148438 167.273438 L 214.425781 187.5 L 214.722656 187.5 L 227.273438 167.542969 L 234.578125 183.371094 L 225.625 187.5 L 226.21875 187.5 L 234.792969 183.542969 C 234.824219 183.53125 234.847656 183.503906 234.859375 183.476562 C 234.871094 183.445312 234.871094 183.410156 234.855469 183.378906 L 227.429688 167.292969 L 233.71875 157.292969 L 250.308594 167.507812 L 240.25 172.898438 C 240.222656 172.914062 240.199219 172.9375 240.1875 172.972656 C 240.179688 173.003906 240.183594 173.035156 240.199219 173.066406 L 245.535156 183.027344 L 240.289062 187.5 L 240.675781 187.5 L 245.65625 183.25 L 247.933594 187.5 L 248.214844 187.5 L 245.851562 183.085938 L 254.503906 175.707031 L 264.5625 187.5 L 264.890625 187.5 L 254.613281 175.449219 C 254.59375 175.421875 254.5625 175.40625 254.527344 175.40625 C 254.496094 175.402344 254.460938 175.414062 254.4375 175.433594 L 245.730469 182.859375 L 240.476562 173.058594 L 250.554688 167.660156 L 272.976562 181.460938 C 272.996094 181.472656 273.015625 181.476562 273.039062 181.476562 C 273.082031 181.476562 273.125 181.457031 273.148438 181.417969 L 275.832031 177.058594 L 281.429688 187.5 L 281.710938 187.5 L 275.984375 176.808594 L 288.875 155.871094 L 306.804688 167.253906 L 299.417969 187.5 L 299.683594 187.5 L 307.019531 167.390625 L 314.414062 172.089844 C 314.433594 172.101562 314.457031 172.109375 314.480469 172.109375 C 314.523438 172.109375 314.5625 172.085938 314.585938 172.050781 L 322.644531 159.363281 L 331.328125 164.597656 C 331.347656 164.605469 331.371094 164.613281 331.390625 164.613281 C 331.402344 164.613281 331.414062 164.613281 331.421875 164.609375 C 331.453125 164.601562 331.480469 164.582031 331.5 164.554688 L 344.996094 142.152344 L 361.441406 148.148438 L 350.832031 155.652344 C 350.777344 155.691406 350.761719 155.769531 350.804688 155.824219 L 361.511719 170.964844 L 355.480469 187.5 L 355.746094 187.5 L 361.6875 171.214844 L 367.617188 179.605469 L 362.652344 187.5 L 362.949219 187.5 L 367.773438 179.828125 L 368.90625 181.425781 C 368.929688 181.460938 368.96875 181.476562 369.007812 181.476562 C 369.03125 181.476562 369.058594 181.472656 369.078125 181.453125 L 375 177.269531 L 375 176.960938 L 369.035156 181.179688 L 367.917969 179.597656 L 375 168.335938 L 375 167.867188 L 367.761719 179.375 L 361.789062 170.929688 L 369.125 150.820312 C 369.136719 150.789062 369.132812 150.753906 369.121094 150.722656 C 369.105469 150.691406 369.082031 150.671875 369.050781 150.65625 L 361.976562 148.078125 L 375 138.871094 L 375 138.5625 L 361.691406 147.976562 L 345.128906 141.933594 L 359.300781 118.417969 C 359.335938 118.359375 359.316406 118.285156 359.257812 118.25 L 351.660156 113.667969 L 357.179688 104.976562 C 357.199219 104.949219 357.207031 104.914062 357.199219 104.882812 C 357.191406 104.851562 357.171875 104.824219 357.140625 104.804688 L 322.363281 82.722656 C 322.308594 82.683594 322.230469 82.703125 322.191406 82.757812 L 316.152344 92.269531 L 308.042969 87.382812 L 323.976562 71.15625 L 331.878906 80.421875 C 331.898438 80.449219 331.929688 80.460938 331.960938 80.464844 C 331.964844 80.464844 331.96875 80.464844 331.972656 80.464844 C 332.003906 80.464844 332.03125 80.457031 332.054688 80.4375 L 352.601562 62.914062 L 367.082031 74.597656 L 359.113281 82.738281 C 359.089844 82.761719 359.078125 82.792969 359.078125 82.828125 C 359.078125 82.859375 359.09375 82.894531 359.117188 82.914062 L 375 98.457031 L 375 98.109375 L 359.382812 82.824219 L 367.277344 74.753906 L 375 80.984375 L 375 80.664062 L 367.453125 74.574219 L 375 66.863281 L 375 66.507812 L 367.257812 74.417969 L 352.796875 62.75 L 375 43.816406 L 375 43.488281 L 352.597656 62.589844 L 333.992188 47.578125 L 362.292969 23.445312 L 375 33.699219 L 375 33.378906 L 362.484375 23.28125 L 371.628906 15.484375 L 375 19.4375 L 375 19.050781 L 371.738281 15.226562 C 371.714844 15.203125 371.6875 15.183594 371.652344 15.183594 Z M 234.753906 58.863281 L 216.398438 37.335938 L 234.472656 18.871094 L 256.441406 40.371094 Z M 199.550781 109.898438 L 194.199219 104.660156 L 211.492188 76.566406 L 224.398438 84.507812 Z M 361.726562 148.253906 L 368.847656 150.851562 L 361.613281 170.679688 L 351.078125 155.785156 Z M 337.914062 3.777344 L 342.292969 7.3125 L 344.550781 15.585938 L 330.1875 19.503906 L 328.933594 14.90625 Z M 328.742188 15.148438 L 329.980469 19.691406 C 329.988281 19.722656 330.007812 19.75 330.039062 19.769531 C 330.058594 19.777344 330.078125 19.785156 330.101562 19.785156 C 330.113281 19.785156 330.125 19.78125 330.132812 19.78125 L 344.734375 15.796875 C 344.769531 15.789062 344.796875 15.765625 344.8125 15.734375 C 344.828125 15.707031 344.832031 15.671875 344.824219 15.640625 L 342.625 7.578125 L 350.425781 13.871094 L 344.34375 30.542969 L 322.691406 22.644531 Z M 295.054688 25.441406 L 305.558594 45.050781 L 279.753906 58.875 L 273.566406 47.324219 Z M 224.796875 84.460938 L 262.40625 46.03125 C 262.429688 46.003906 262.441406 45.972656 262.441406 45.941406 C 262.441406 45.90625 262.425781 45.875 262.402344 45.851562 L 256.8125 40.382812 L 265.566406 32.917969 L 273.257812 47.277344 L 247.917969 73.089844 C 247.894531 73.113281 247.878906 73.144531 247.878906 73.175781 C 247.878906 73.210938 247.894531 73.242188 247.917969 73.265625 L 252.734375 77.992188 L 234.328125 90.328125 Z M 282.933594 94.5625 L 268.386719 72.863281 L 272.402344 66.195312 L 307.644531 87.433594 L 285.585938 109.898438 L 275.320312 99.820312 L 282.898438 94.738281 C 282.925781 94.71875 282.945312 94.691406 282.953125 94.65625 C 282.960938 94.625 282.953125 94.59375 282.933594 94.5625 Z M 282.65625 94.597656 L 275.136719 99.640625 L 260.757812 85.523438 L 268.246094 73.097656 Z M 287.269531 137.75 L 251.179688 116 L 262.847656 108.179688 L 293.910156 127.296875 Z M 294.121094 127.429688 L 302.800781 132.769531 L 296.363281 143.230469 L 287.484375 137.878906 Z M 250.941406 115.855469 L 244.734375 112.117188 L 251.363281 101.109375 L 262.613281 108.035156 Z M 262.84375 107.878906 L 251.492188 100.894531 L 260.625 85.742188 L 274.925781 99.78125 Z M 260.574219 85.339844 L 253.128906 78.03125 L 265.839844 69.511719 L 268.089844 72.871094 Z M 260.441406 85.5625 L 251.28125 100.761719 L 234.5625 90.472656 L 252.917969 78.171875 Z M 217.957031 101.605469 L 234.335938 90.625 L 251.152344 100.976562 L 244.453125 112.09375 C 244.417969 112.152344 244.4375 112.230469 244.496094 112.265625 L 250.710938 116.011719 L 242.9375 121.222656 L 232.710938 106.757812 C 232.691406 106.730469 232.664062 106.710938 232.628906 106.707031 C 232.597656 106.703125 232.5625 106.707031 232.535156 106.726562 L 224.976562 112.074219 Z M 242.730469 121.363281 L 234.773438 126.695312 L 225.113281 112.28125 L 232.578125 107.003906 Z M 205.316406 139.515625 L 195.308594 133.355469 L 224.910156 112.425781 L 234.636719 126.9375 C 234.660156 126.972656 234.703125 126.992188 234.742188 126.992188 C 234.765625 126.992188 234.789062 126.984375 234.8125 126.972656 L 242.875 121.566406 L 250.535156 132.402344 L 235.222656 143.230469 L 212.222656 128.765625 C 212.195312 128.75 212.160156 128.742188 212.128906 128.75 C 212.097656 128.757812 212.066406 128.777344 212.050781 128.808594 Z M 224.109375 151.085938 L 205.527344 139.648438 L 212.195312 129.046875 L 235 143.386719 Z M 233.636719 156.949219 L 224.34375 151.230469 L 235.230469 143.53125 L 240.136719 146.617188 Z M 273 181.179688 L 250.8125 167.523438 L 266.28125 159.234375 L 275.695312 176.800781 Z M 275.847656 176.554688 L 266.445312 159.003906 C 266.414062 158.945312 266.335938 158.921875 266.277344 158.953125 L 250.566406 167.371094 L 233.851562 157.082031 L 240.414062 146.644531 C 240.433594 146.613281 240.4375 146.582031 240.429688 146.550781 C 240.421875 146.515625 240.402344 146.488281 240.375 146.472656 L 235.449219 143.375 L 250.78125 132.535156 C 250.839844 132.492188 250.851562 132.414062 250.8125 132.359375 L 243.082031 121.425781 L 250.949219 116.152344 L 287.136719 137.960938 L 279.597656 149.832031 C 279.582031 149.859375 279.574219 149.894531 279.582031 149.925781 C 279.589844 149.960938 279.609375 149.988281 279.636719 150.007812 L 288.664062 155.738281 Z M 288.796875 155.523438 L 279.875 149.863281 L 287.351562 138.09375 L 296.230469 143.445312 Z M 306.890625 167.015625 L 289.003906 155.65625 L 296.445312 143.574219 L 312.019531 152.957031 Z M 314.441406 171.808594 L 307.105469 167.152344 L 312.234375 153.089844 L 322.429688 159.234375 Z M 322.5625 159.023438 L 312.324219 152.851562 L 319.601562 132.890625 L 335.480469 138.679688 Z M 331.347656 164.316406 L 322.777344 159.152344 L 335.722656 138.769531 L 344.757812 142.066406 Z M 359.023438 118.398438 L 344.890625 141.847656 L 335.859375 138.554688 L 351.527344 113.878906 Z M 322.335938 83 L 356.902344 104.949219 L 351.449219 113.539062 L 316.367188 92.398438 Z M 316.234375 92.609375 L 351.3125 113.75 L 335.617188 138.464844 L 319.574219 132.613281 C 319.507812 132.589844 319.4375 132.625 319.410156 132.6875 L 312.105469 152.71875 L 296.578125 143.359375 L 303.078125 132.796875 C 303.097656 132.765625 303.101562 132.734375 303.09375 132.703125 C 303.085938 132.667969 303.066406 132.640625 303.039062 132.625 L 294.253906 127.21875 Z M 316.019531 92.480469 L 294.042969 127.085938 L 263.078125 108.023438 L 275.105469 99.960938 L 285.5 110.164062 C 285.523438 110.1875 285.554688 110.199219 285.585938 110.199219 C 285.617188 110.199219 285.652344 110.1875 285.675781 110.164062 L 307.863281 87.566406 Z M 307.824219 87.25 L 272.425781 65.917969 C 272.398438 65.902344 272.363281 65.894531 272.332031 65.902344 C 272.300781 65.910156 272.273438 65.929688 272.253906 65.960938 L 268.234375 72.632812 L 265.976562 69.265625 C 265.9375 69.210938 265.859375 69.195312 265.804688 69.234375 L 252.945312 77.851562 L 248.183594 73.171875 L 273.382812 47.507812 L 279.59375 59.101562 C 279.617188 59.144531 279.660156 59.167969 279.703125 59.167969 C 279.722656 59.167969 279.746094 59.164062 279.761719 59.152344 L 305.789062 45.210938 C 305.816406 45.195312 305.839844 45.167969 305.847656 45.136719 C 305.859375 45.105469 305.855469 45.070312 305.839844 45.042969 L 295.238281 25.253906 L 298.285156 22.148438 L 328.5625 51.878906 L 316.484375 62.175781 C 316.433594 62.21875 316.425781 62.300781 316.472656 62.351562 L 323.816406 70.964844 Z M 316.742188 62.285156 L 328.742188 52.054688 L 335.6875 58.875 L 323.992188 70.785156 Z M 352.40625 62.753906 L 331.988281 80.164062 L 324.152344 70.976562 L 335.953125 58.960938 C 336 58.910156 336 58.832031 335.949219 58.78125 L 328.933594 51.890625 L 333.796875 47.742188 Z M 333.792969 47.417969 L 314.960938 32.226562 L 322.527344 22.851562 L 344.375 30.820312 C 344.390625 30.828125 344.402344 30.828125 344.417969 30.828125 C 344.46875 30.828125 344.519531 30.796875 344.535156 30.746094 L 350.628906 14.039062 L 362.09375 23.285156 L 333.792969 47.417969 " fill-opacity="1" fill-rule="nonzero"/></g><path fill="#00bf63" d="M 368.941406 125.125 L 375 128.855469 L 375 128.558594 L 369.175781 124.976562 L 375 115.515625 L 375 115.042969 L 368.898438 124.949219 C 368.863281 125.007812 368.882812 125.085938 368.941406 125.125 " fill-opacity="1" fill-rule="nonzero"/><path fill="#00bf63" d="M 148.113281 357.09375 C 148.085938 357.078125 148.054688 357.074219 148.019531 357.082031 L 133.417969 361.066406 C 133.386719 361.078125 133.359375 361.097656 133.339844 361.125 C 133.324219 361.15625 133.320312 361.1875 133.328125 361.21875 L 137.089844 375 L 137.347656 375 L 133.601562 361.277344 L 147.964844 357.355469 L 152.777344 375 L 153.035156 375 L 148.171875 357.171875 C 148.164062 357.136719 148.144531 357.113281 148.113281 357.09375 " fill-opacity="1" fill-rule="nonzero"/><g clip-path="url(#c08da448e7)"><path fill="#00bf63" d="M 14.621094 207.453125 C 14.660156 207.453125 14.703125 207.433594 14.726562 207.394531 L 22.542969 194.964844 L 38.726562 187.5 L 38.128906 187.5 L 22.785156 194.578125 L 27.238281 187.5 L 26.941406 187.5 L 22.371094 194.769531 L 16.265625 197.585938 L 11.613281 187.5 L 11.339844 187.5 L 16.089844 197.800781 C 16.113281 197.847656 16.160156 197.875 16.203125 197.875 C 16.222656 197.875 16.242188 197.871094 16.257812 197.863281 L 22.125 195.15625 L 14.582031 207.15625 L 0 197.988281 L 0 198.28125 L 14.554688 207.433594 C 14.574219 207.445312 14.597656 207.453125 14.621094 207.453125 " fill-opacity="1" fill-rule="nonzero"/></g><g clip-path="url(#57383b9dde)"><path fill="#00bf63" d="M 174.140625 189.585938 L 175.449219 187.5 L 175.15625 187.5 L 173.859375 189.558594 C 173.84375 189.585938 173.835938 189.617188 173.84375 189.652344 C 173.851562 189.683594 173.875 189.710938 173.898438 189.730469 L 187.5 198.28125 L 187.5 197.988281 L 174.140625 189.585938 " fill-opacity="1" fill-rule="nonzero"/></g><g clip-path="url(#3fc727058b)"><path fill="#00bf63" d="M 184.152344 202.683594 C 184.121094 202.679688 184.085938 202.691406 184.0625 202.710938 L 174.785156 210.621094 L 163.222656 201.289062 L 168.25 187.5 L 167.984375 187.5 L 163.015625 201.121094 L 155.011719 194.667969 L 153.054688 187.5 L 152.796875 187.5 L 154.679688 194.398438 L 150.472656 191.003906 C 150.445312 190.984375 150.414062 190.972656 150.378906 190.976562 C 150.347656 190.980469 150.316406 190.996094 150.296875 191.023438 L 141.351562 202.109375 L 137.367188 187.5 L 137.109375 187.5 L 141.160156 202.351562 L 134.941406 210.054688 L 107.601562 200.082031 L 112.191406 187.5 L 111.921875 187.5 L 107.320312 200.113281 C 107.3125 200.144531 107.3125 200.179688 107.324219 200.210938 C 107.339844 200.238281 107.367188 200.261719 107.398438 200.273438 L 134.777344 210.261719 L 127.1875 219.667969 C 127.144531 219.71875 127.15625 219.800781 127.207031 219.84375 L 146.097656 235.082031 L 141.253906 239.214844 L 110.871094 209.382812 C 110.824219 209.335938 110.742188 209.335938 110.695312 209.382812 L 107.613281 212.523438 L 94.207031 187.5 L 93.925781 187.5 L 107.429688 212.710938 L 85.945312 234.59375 L 78.261719 220.253906 L 93.832031 206.976562 C 93.882812 206.929688 93.890625 206.851562 93.84375 206.800781 L 77.390625 187.5 L 77.058594 187.5 L 93.574219 206.867188 L 78.140625 220.027344 L 60.710938 187.5 L 60.429688 187.5 L 77.945312 220.191406 L 69.132812 227.707031 L 47.058594 206.101562 C 47.007812 206.054688 46.929688 206.054688 46.882812 206.105469 L 28.738281 224.644531 L 20.6875 215.203125 L 53.175781 187.5 L 52.792969 187.5 L 20.429688 215.09375 C 20.402344 215.117188 20.386719 215.148438 20.386719 215.179688 C 20.382812 215.214844 20.394531 215.246094 20.417969 215.269531 L 28.5625 224.824219 L 18.117188 235.5 L 6.292969 225.960938 L 12.140625 220.972656 C 12.167969 220.953125 12.183594 220.921875 12.1875 220.886719 C 12.1875 220.855469 12.179688 220.824219 12.15625 220.796875 L 0 206.539062 L 0 206.925781 L 11.886719 220.863281 L 6.097656 225.800781 L 0 220.882812 L 0 221.203125 L 5.902344 225.964844 L 0 231 L 0 231.328125 L 6.101562 226.125 L 17.941406 235.679688 L 0 254.011719 L 0 254.367188 L 18.136719 235.835938 L 24.183594 240.714844 L 1.230469 269.164062 L 0 268.167969 L 0 268.492188 L 1.171875 269.4375 C 1.195312 269.453125 1.222656 269.460938 1.25 269.460938 C 1.285156 269.460938 1.320312 269.445312 1.347656 269.417969 L 24.457031 240.773438 C 24.476562 240.75 24.484375 240.714844 24.484375 240.683594 C 24.480469 240.648438 24.464844 240.617188 24.4375 240.597656 L 18.3125 235.65625 L 28.722656 225.015625 L 47.144531 246.621094 C 47.171875 246.648438 47.207031 246.664062 47.242188 246.664062 C 47.269531 246.664062 47.296875 246.652344 47.324219 246.632812 L 69.121094 228.042969 L 74.640625 233.445312 L 37.078125 271.824219 L 24.019531 263.785156 C 23.960938 263.75 23.882812 263.769531 23.847656 263.828125 L 6.515625 291.980469 L 0 285.605469 L 0 285.953125 L 6.382812 292.199219 L 0 302.566406 L 0 303.042969 L 6.566406 292.378906 L 11.964844 297.664062 C 11.992188 297.6875 12.023438 297.699219 12.054688 297.699219 C 12.085938 297.699219 12.121094 297.6875 12.144531 297.664062 L 37.117188 272.144531 L 46.601562 277.980469 L 30.214844 288.964844 C 30.1875 288.984375 30.167969 289.011719 30.164062 289.046875 C 30.15625 289.078125 30.164062 289.109375 30.179688 289.140625 L 37.273438 299.71875 L 7.578125 320.714844 L 0 316.050781 L 0 316.34375 L 7.355469 320.871094 L 0 326.074219 L 0 326.378906 L 7.585938 321.015625 L 17.683594 327.230469 L 0 355.347656 L 0 355.820312 L 17.894531 327.359375 L 36.386719 338.742188 L 0 364.472656 L 0 364.777344 L 36.621094 338.886719 L 46.003906 344.664062 L 39.804688 354.519531 L 38.613281 351.9375 C 38.585938 351.875 38.511719 351.84375 38.445312 351.875 L 7.414062 366.1875 C 7.382812 366.203125 7.359375 366.226562 7.347656 366.257812 C 7.335938 366.289062 7.335938 366.324219 7.351562 366.355469 L 11.339844 375 L 11.613281 375 L 7.628906 366.363281 L 38.441406 352.15625 L 39.648438 354.773438 L 26.925781 375 L 27.222656 375 L 39.773438 355.042969 L 47.078125 370.871094 L 38.125 375 L 38.71875 375 L 47.292969 371.042969 C 47.324219 371.03125 47.347656 371.003906 47.359375 370.976562 C 47.371094 370.945312 47.371094 370.910156 47.355469 370.878906 L 39.929688 354.792969 L 46.21875 344.792969 L 62.808594 355.007812 L 52.75 360.398438 C 52.722656 360.414062 52.699219 360.4375 52.6875 360.472656 C 52.679688 360.503906 52.683594 360.535156 52.699219 360.566406 L 58.035156 370.527344 L 52.789062 375 L 53.175781 375 L 58.15625 370.75 L 60.433594 375 L 60.714844 375 L 58.351562 370.585938 L 67.003906 363.207031 L 77.0625 375 L 77.390625 375 L 67.113281 362.949219 C 67.09375 362.921875 67.0625 362.90625 67.027344 362.90625 C 66.996094 362.902344 66.960938 362.914062 66.9375 362.933594 L 58.230469 370.359375 L 52.976562 360.558594 L 63.054688 355.160156 L 85.476562 368.960938 C 85.496094 368.972656 85.515625 368.976562 85.539062 368.976562 C 85.582031 368.976562 85.625 368.957031 85.648438 368.917969 L 88.332031 364.558594 L 93.929688 375 L 94.210938 375 L 88.484375 364.308594 L 101.375 343.371094 L 119.304688 354.753906 L 111.917969 375 L 112.183594 375 L 119.519531 354.890625 L 126.914062 359.589844 C 126.933594 359.601562 126.957031 359.609375 126.980469 359.609375 C 127.023438 359.609375 127.0625 359.585938 127.085938 359.550781 L 135.144531 346.863281 L 143.828125 352.097656 C 143.847656 352.105469 143.871094 352.113281 143.890625 352.113281 C 143.902344 352.113281 143.914062 352.113281 143.921875 352.109375 C 143.953125 352.101562 143.980469 352.082031 144 352.054688 L 157.496094 329.652344 L 173.941406 335.648438 L 163.332031 343.152344 C 163.277344 343.191406 163.261719 343.269531 163.304688 343.324219 L 174.011719 358.464844 L 167.980469 375 L 168.246094 375 L 174.1875 358.714844 L 180.117188 367.105469 L 175.152344 375 L 175.449219 375 L 180.273438 367.328125 L 181.40625 368.925781 C 181.429688 368.960938 181.46875 368.976562 181.507812 368.976562 C 181.53125 368.976562 181.558594 368.972656 181.578125 368.953125 L 187.5 364.769531 L 187.5 364.460938 L 181.535156 368.679688 L 180.417969 367.097656 L 187.5 355.835938 L 187.5 355.367188 L 180.261719 366.875 L 174.289062 358.429688 L 181.625 338.320312 C 181.636719 338.289062 181.632812 338.253906 181.621094 338.222656 C 181.605469 338.191406 181.582031 338.171875 181.550781 338.15625 L 174.476562 335.578125 L 187.5 326.371094 L 187.5 326.0625 L 174.191406 335.476562 L 157.628906 329.433594 L 171.800781 305.917969 C 171.835938 305.859375 171.816406 305.785156 171.757812 305.75 L 164.160156 301.167969 L 169.679688 292.476562 C 169.699219 292.449219 169.707031 292.414062 169.699219 292.382812 C 169.691406 292.351562 169.671875 292.324219 169.640625 292.304688 L 134.863281 270.222656 C 134.808594 270.183594 134.730469 270.203125 134.691406 270.257812 L 128.652344 279.769531 L 120.542969 274.882812 L 136.476562 258.65625 L 144.378906 267.921875 C 144.398438 267.949219 144.429688 267.960938 144.460938 267.964844 C 144.464844 267.964844 144.46875 267.964844 144.472656 267.964844 C 144.503906 267.964844 144.53125 267.957031 144.554688 267.9375 L 165.101562 250.414062 L 179.582031 262.097656 L 171.613281 270.238281 C 171.589844 270.261719 171.578125 270.292969 171.578125 270.328125 C 171.578125 270.359375 171.59375 270.394531 171.617188 270.414062 L 187.5 285.957031 L 187.5 285.609375 L 171.882812 270.324219 L 179.777344 262.253906 L 187.5 268.484375 L 187.5 268.164062 L 179.953125 262.074219 L 187.5 254.363281 L 187.5 254.007812 L 179.757812 261.917969 L 165.296875 250.25 L 187.5 231.316406 L 187.5 230.988281 L 165.097656 250.089844 L 146.492188 235.078125 L 174.792969 210.945312 L 187.5 221.199219 L 187.5 220.878906 L 174.984375 210.78125 L 184.128906 202.984375 L 187.5 206.9375 L 187.5 206.550781 L 184.238281 202.726562 C 184.214844 202.703125 184.1875 202.683594 184.152344 202.683594 Z M 47.253906 246.363281 L 28.898438 224.835938 L 46.972656 206.371094 L 68.941406 227.871094 Z M 12.050781 297.398438 L 6.699219 292.160156 L 23.996094 264.066406 L 36.898438 272.007812 Z M 174.226562 335.753906 L 181.347656 338.351562 L 174.113281 358.179688 L 163.578125 343.285156 Z M 150.414062 191.277344 L 154.792969 194.8125 L 157.050781 203.085938 L 142.6875 207.003906 L 141.433594 202.40625 Z M 141.242188 202.648438 L 142.480469 207.191406 C 142.488281 207.222656 142.507812 207.25 142.539062 207.269531 C 142.558594 207.277344 142.578125 207.285156 142.601562 207.285156 C 142.613281 207.285156 142.625 207.28125 142.632812 207.28125 L 157.234375 203.296875 C 157.269531 203.289062 157.296875 203.265625 157.3125 203.234375 C 157.328125 203.207031 157.332031 203.171875 157.324219 203.140625 L 155.125 195.078125 L 162.925781 201.371094 L 156.84375 218.042969 L 135.191406 210.144531 Z M 107.554688 212.941406 L 118.058594 232.550781 L 92.253906 246.375 L 86.066406 234.824219 Z M 37.296875 271.960938 L 74.90625 233.53125 C 74.929688 233.503906 74.941406 233.472656 74.941406 233.441406 C 74.941406 233.40625 74.925781 233.375 74.902344 233.351562 L 69.3125 227.882812 L 78.066406 220.417969 L 85.757812 234.777344 L 60.417969 260.589844 C 60.394531 260.613281 60.378906 260.644531 60.378906 260.675781 C 60.378906 260.710938 60.394531 260.742188 60.417969 260.765625 L 65.234375 265.492188 L 46.828125 277.828125 Z M 95.433594 282.0625 L 80.886719 260.363281 L 84.902344 253.695312 L 120.144531 274.933594 L 98.085938 297.398438 L 87.820312 287.320312 L 95.398438 282.238281 C 95.425781 282.21875 95.445312 282.191406 95.453125 282.15625 C 95.460938 282.125 95.453125 282.09375 95.433594 282.0625 Z M 95.15625 282.097656 L 87.636719 287.140625 L 73.257812 273.023438 L 80.746094 260.597656 Z M 99.769531 325.25 L 63.679688 303.5 L 75.347656 295.679688 L 106.410156 314.796875 Z M 106.621094 314.929688 L 115.300781 320.269531 L 108.863281 330.730469 L 99.984375 325.378906 Z M 63.441406 303.355469 L 57.234375 299.617188 L 63.863281 288.609375 L 75.113281 295.535156 Z M 75.34375 295.378906 L 63.992188 288.394531 L 73.125 273.242188 L 87.425781 287.28125 Z M 73.074219 272.839844 L 65.628906 265.53125 L 78.339844 257.011719 L 80.589844 260.371094 Z M 72.941406 273.0625 L 63.78125 288.261719 L 47.0625 277.972656 L 65.417969 265.671875 Z M 30.460938 289.105469 L 46.835938 278.125 L 63.652344 288.476562 L 56.953125 299.59375 C 56.917969 299.652344 56.9375 299.730469 56.996094 299.765625 L 63.210938 303.511719 L 55.4375 308.722656 L 45.210938 294.257812 C 45.191406 294.230469 45.164062 294.210938 45.128906 294.207031 C 45.097656 294.203125 45.0625 294.207031 45.035156 294.226562 L 37.476562 299.574219 Z M 55.230469 308.863281 L 47.273438 314.195312 L 37.613281 299.78125 L 45.078125 294.503906 Z M 17.816406 327.015625 L 7.808594 320.855469 L 37.410156 299.925781 L 47.136719 314.4375 C 47.160156 314.472656 47.203125 314.492188 47.242188 314.492188 C 47.265625 314.492188 47.289062 314.484375 47.3125 314.472656 L 55.375 309.066406 L 63.035156 319.902344 L 47.722656 330.730469 L 24.722656 316.265625 C 24.695312 316.25 24.660156 316.242188 24.628906 316.25 C 24.597656 316.257812 24.566406 316.277344 24.550781 316.308594 Z M 36.609375 338.585938 L 18.027344 327.148438 L 24.695312 316.546875 L 47.5 330.886719 Z M 46.136719 344.449219 L 36.84375 338.730469 L 47.730469 331.03125 L 52.636719 334.117188 Z M 85.5 368.679688 L 63.3125 355.023438 L 78.78125 346.734375 L 88.195312 364.300781 Z M 88.347656 364.054688 L 78.945312 346.503906 C 78.914062 346.445312 78.835938 346.421875 78.777344 346.453125 L 63.066406 354.871094 L 46.351562 344.582031 L 52.914062 334.144531 C 52.933594 334.113281 52.9375 334.082031 52.929688 334.050781 C 52.921875 334.015625 52.902344 333.988281 52.875 333.972656 L 47.949219 330.875 L 63.28125 320.035156 C 63.339844 319.992188 63.351562 319.914062 63.3125 319.859375 L 55.582031 308.925781 L 63.449219 303.652344 L 99.636719 325.460938 L 92.097656 337.332031 C 92.082031 337.359375 92.074219 337.394531 92.082031 337.425781 C 92.089844 337.460938 92.109375 337.488281 92.136719 337.507812 L 101.164062 343.238281 Z M 101.296875 343.023438 L 92.375 337.363281 L 99.851562 325.59375 L 108.730469 330.945312 Z M 119.390625 354.515625 L 101.503906 343.15625 L 108.945312 331.074219 L 124.519531 340.457031 Z M 126.941406 359.308594 L 119.605469 354.652344 L 124.734375 340.589844 L 134.929688 346.734375 Z M 135.0625 346.523438 L 124.824219 340.351562 L 132.101562 320.390625 L 147.980469 326.179688 Z M 143.847656 351.816406 L 135.277344 346.652344 L 148.222656 326.269531 L 157.257812 329.566406 Z M 171.523438 305.898438 L 157.390625 329.347656 L 148.359375 326.054688 L 164.027344 301.378906 Z M 134.835938 270.5 L 169.402344 292.449219 L 163.949219 301.039062 L 128.867188 279.898438 Z M 128.734375 280.109375 L 163.8125 301.25 L 148.117188 325.964844 L 132.074219 320.113281 C 132.007812 320.089844 131.9375 320.125 131.910156 320.1875 L 124.605469 340.21875 L 109.078125 330.859375 L 115.578125 320.296875 C 115.597656 320.265625 115.601562 320.234375 115.59375 320.203125 C 115.585938 320.167969 115.566406 320.140625 115.539062 320.125 L 106.753906 314.71875 Z M 128.519531 279.980469 L 106.542969 314.585938 L 75.578125 295.523438 L 87.605469 287.460938 L 98 297.664062 C 98.023438 297.6875 98.054688 297.699219 98.085938 297.699219 C 98.117188 297.699219 98.152344 297.6875 98.175781 297.664062 L 120.363281 275.066406 Z M 120.324219 274.75 L 84.925781 253.417969 C 84.898438 253.402344 84.863281 253.394531 84.832031 253.402344 C 84.800781 253.410156 84.773438 253.429688 84.753906 253.460938 L 80.734375 260.132812 L 78.476562 256.765625 C 78.4375 256.710938 78.359375 256.695312 78.304688 256.734375 L 65.445312 265.351562 L 60.683594 260.671875 L 85.882812 235.007812 L 92.09375 246.601562 C 92.117188 246.644531 92.160156 246.667969 92.203125 246.667969 C 92.222656 246.667969 92.246094 246.664062 92.261719 246.652344 L 118.289062 232.710938 C 118.316406 232.695312 118.339844 232.667969 118.347656 232.636719 C 118.359375 232.605469 118.355469 232.570312 118.339844 232.542969 L 107.738281 212.753906 L 110.785156 209.648438 L 141.0625 239.378906 L 128.984375 249.675781 C 128.933594 249.71875 128.925781 249.800781 128.972656 249.851562 L 136.316406 258.464844 Z M 129.242188 249.785156 L 141.242188 239.554688 L 148.1875 246.375 L 136.492188 258.285156 Z M 164.90625 250.253906 L 144.488281 267.664062 L 136.652344 258.476562 L 148.453125 246.460938 C 148.5 246.410156 148.5 246.332031 148.449219 246.28125 L 141.433594 239.390625 L 146.296875 235.242188 Z M 146.292969 234.917969 L 127.460938 219.726562 L 135.027344 210.351562 L 156.875 218.320312 C 156.890625 218.328125 156.902344 218.328125 156.917969 218.328125 C 156.96875 218.328125 157.019531 218.296875 157.035156 218.246094 L 163.128906 201.539062 L 174.59375 210.785156 L 146.292969 234.917969 " fill-opacity="1" fill-rule="nonzero"/></g><g clip-path="url(#cef56f11fb)"><path fill="#00bf63" d="M 181.441406 312.625 L 187.5 316.355469 L 187.5 316.058594 L 181.675781 312.476562 L 187.5 303.015625 L 187.5 302.542969 L 181.398438 312.449219 C 181.363281 312.507812 181.382812 312.585938 181.441406 312.625 " fill-opacity="1" fill-rule="nonzero"/></g><path fill="#00bf63" d="M 335.613281 357.09375 C 335.585938 357.078125 335.554688 357.074219 335.519531 357.082031 L 320.917969 361.066406 C 320.886719 361.078125 320.859375 361.097656 320.839844 361.125 C 320.824219 361.15625 320.820312 361.1875 320.828125 361.21875 L 324.589844 375 L 324.847656 375 L 321.101562 361.277344 L 335.464844 357.355469 L 340.277344 375 L 340.535156 375 L 335.671875 357.171875 C 335.664062 357.136719 335.644531 357.113281 335.613281 357.09375 " fill-opacity="1" fill-rule="nonzero"/><g clip-path="url(#546d015bc4)"><path fill="#00bf63" d="M 202.121094 207.453125 C 202.160156 207.453125 202.203125 207.433594 202.226562 207.394531 L 210.042969 194.964844 L 226.226562 187.5 L 225.628906 187.5 L 210.285156 194.578125 L 214.738281 187.5 L 214.441406 187.5 L 209.871094 194.769531 L 203.765625 197.585938 L 199.113281 187.5 L 198.835938 187.5 L 203.589844 197.800781 C 203.613281 197.847656 203.660156 197.875 203.703125 197.875 C 203.722656 197.875 203.738281 197.871094 203.757812 197.863281 L 209.625 195.15625 L 202.082031 207.15625 L 187.5 197.988281 L 187.5 198.28125 L 202.054688 207.433594 C 202.074219 207.445312 202.097656 207.453125 202.121094 207.453125 " fill-opacity="1" fill-rule="nonzero"/></g><g clip-path="url(#da1184ca08)"><path fill="#00bf63" d="M 361.640625 189.585938 L 362.949219 187.5 L 362.65625 187.5 L 361.359375 189.558594 C 361.34375 189.585938 361.335938 189.617188 361.34375 189.652344 C 361.351562 189.683594 361.375 189.710938 361.398438 189.730469 L 375 198.28125 L 375 197.988281 L 361.640625 189.585938 " fill-opacity="1" fill-rule="nonzero"/></g><g clip-path="url(#6bee30e2b2)"><path fill="#00bf63" d="M 371.652344 202.683594 C 371.621094 202.679688 371.585938 202.691406 371.5625 202.710938 L 362.285156 210.621094 L 350.722656 201.289062 L 355.75 187.5 L 355.484375 187.5 L 350.515625 201.121094 L 342.511719 194.667969 L 340.554688 187.5 L 340.296875 187.5 L 342.179688 194.398438 L 337.972656 191.003906 C 337.945312 190.984375 337.914062 190.972656 337.878906 190.976562 C 337.847656 190.980469 337.816406 190.996094 337.796875 191.023438 L 328.851562 202.109375 L 324.867188 187.5 L 324.609375 187.5 L 328.660156 202.351562 L 322.441406 210.054688 L 295.101562 200.082031 L 299.691406 187.5 L 299.421875 187.5 L 294.820312 200.113281 C 294.8125 200.144531 294.8125 200.179688 294.824219 200.210938 C 294.839844 200.238281 294.867188 200.261719 294.898438 200.273438 L 322.277344 210.261719 L 314.6875 219.667969 C 314.644531 219.71875 314.65625 219.800781 314.707031 219.84375 L 333.597656 235.082031 L 328.753906 239.214844 L 298.371094 209.382812 C 298.324219 209.335938 298.242188 209.335938 298.195312 209.382812 L 295.113281 212.523438 L 281.707031 187.5 L 281.425781 187.5 L 294.929688 212.710938 L 273.445312 234.59375 L 265.761719 220.253906 L 281.332031 206.976562 C 281.382812 206.929688 281.390625 206.851562 281.34375 206.800781 L 264.890625 187.5 L 264.558594 187.5 L 281.074219 206.867188 L 265.640625 220.027344 L 248.210938 187.5 L 247.929688 187.5 L 265.445312 220.191406 L 256.632812 227.707031 L 234.558594 206.101562 C 234.507812 206.054688 234.429688 206.054688 234.382812 206.105469 L 216.238281 224.644531 L 208.1875 215.203125 L 240.675781 187.5 L 240.292969 187.5 L 207.929688 215.09375 C 207.902344 215.117188 207.886719 215.148438 207.886719 215.179688 C 207.882812 215.214844 207.894531 215.246094 207.917969 215.269531 L 216.0625 224.824219 L 205.617188 235.5 L 193.792969 225.960938 L 199.640625 220.972656 C 199.667969 220.953125 199.683594 220.921875 199.6875 220.886719 C 199.6875 220.855469 199.675781 220.824219 199.65625 220.796875 L 187.5 206.539062 L 187.5 206.925781 L 199.382812 220.863281 L 193.597656 225.800781 L 187.5 220.882812 L 187.5 221.203125 L 193.402344 225.964844 L 187.5 231 L 187.5 231.328125 L 193.601562 226.125 L 205.441406 235.679688 L 187.5 254.011719 L 187.5 254.367188 L 205.636719 235.835938 L 211.683594 240.714844 L 188.730469 269.164062 L 187.5 268.167969 L 187.5 268.492188 L 188.671875 269.4375 C 188.695312 269.453125 188.722656 269.460938 188.75 269.460938 C 188.785156 269.460938 188.820312 269.445312 188.847656 269.417969 L 211.957031 240.773438 C 211.976562 240.75 211.984375 240.714844 211.980469 240.683594 C 211.980469 240.648438 211.960938 240.617188 211.9375 240.597656 L 205.8125 235.65625 L 216.222656 225.015625 L 234.644531 246.621094 C 234.671875 246.648438 234.707031 246.664062 234.742188 246.664062 C 234.769531 246.664062 234.796875 246.652344 234.824219 246.632812 L 256.621094 228.042969 L 262.140625 233.445312 L 224.578125 271.824219 L 211.519531 263.785156 C 211.460938 263.75 211.382812 263.769531 211.347656 263.828125 L 194.015625 291.980469 L 187.5 285.605469 L 187.5 285.953125 L 193.882812 292.199219 L 187.5 302.566406 L 187.5 303.042969 L 194.066406 292.378906 L 199.464844 297.664062 C 199.492188 297.6875 199.523438 297.699219 199.554688 297.699219 C 199.585938 297.699219 199.617188 297.6875 199.644531 297.664062 L 224.617188 272.144531 L 234.101562 277.980469 L 217.714844 288.964844 C 217.6875 288.984375 217.667969 289.011719 217.664062 289.046875 C 217.65625 289.078125 217.664062 289.109375 217.679688 289.140625 L 224.773438 299.71875 L 195.078125 320.714844 L 187.5 316.050781 L 187.5 316.34375 L 194.855469 320.871094 L 187.5 326.074219 L 187.5 326.378906 L 195.085938 321.015625 L 205.183594 327.230469 L 187.5 355.347656 L 187.5 355.820312 L 205.394531 327.359375 L 223.886719 338.742188 L 187.5 364.472656 L 187.5 364.777344 L 224.121094 338.886719 L 233.503906 344.664062 L 227.304688 354.519531 L 226.113281 351.9375 C 226.085938 351.875 226.011719 351.84375 225.945312 351.875 L 194.910156 366.1875 C 194.882812 366.203125 194.859375 366.226562 194.847656 366.257812 C 194.835938 366.289062 194.835938 366.324219 194.851562 366.355469 L 198.839844 375 L 199.113281 375 L 195.128906 366.363281 L 225.941406 352.15625 L 227.148438 354.773438 L 214.425781 375 L 214.722656 375 L 227.273438 355.042969 L 234.578125 370.871094 L 225.625 375 L 226.21875 375 L 234.792969 371.042969 C 234.824219 371.03125 234.847656 371.003906 234.859375 370.976562 C 234.871094 370.945312 234.871094 370.910156 234.855469 370.878906 L 227.429688 354.792969 L 233.71875 344.792969 L 250.308594 355.007812 L 240.25 360.398438 C 240.222656 360.414062 240.199219 360.4375 240.1875 360.472656 C 240.179688 360.503906 240.183594 360.535156 240.199219 360.566406 L 245.535156 370.527344 L 240.289062 375 L 240.675781 375 L 245.65625 370.75 L 247.933594 375 L 248.214844 375 L 245.851562 370.585938 L 254.503906 363.207031 L 264.5625 375 L 264.890625 375 L 254.613281 362.949219 C 254.59375 362.921875 254.5625 362.90625 254.527344 362.90625 C 254.496094 362.902344 254.460938 362.914062 254.4375 362.933594 L 245.730469 370.359375 L 240.476562 360.558594 L 250.554688 355.160156 L 272.976562 368.960938 C 272.996094 368.972656 273.015625 368.976562 273.039062 368.976562 C 273.082031 368.976562 273.125 368.957031 273.148438 368.917969 L 275.832031 364.558594 L 281.429688 375 L 281.710938 375 L 275.984375 364.308594 L 288.875 343.371094 L 306.804688 354.753906 L 299.417969 375 L 299.683594 375 L 307.019531 354.890625 L 314.414062 359.589844 C 314.433594 359.601562 314.457031 359.609375 314.480469 359.609375 C 314.523438 359.609375 314.5625 359.585938 314.585938 359.550781 L 322.644531 346.863281 L 331.328125 352.097656 C 331.347656 352.105469 331.371094 352.113281 331.390625 352.113281 C 331.402344 352.113281 331.414062 352.113281 331.421875 352.109375 C 331.453125 352.101562 331.480469 352.082031 331.5 352.054688 L 344.996094 329.652344 L 361.441406 335.648438 L 350.832031 343.152344 C 350.777344 343.191406 350.761719 343.269531 350.804688 343.324219 L 361.511719 358.464844 L 355.480469 375 L 355.746094 375 L 361.6875 358.714844 L 367.617188 367.105469 L 362.652344 375 L 362.949219 375 L 367.773438 367.328125 L 368.90625 368.925781 C 368.929688 368.960938 368.96875 368.976562 369.007812 368.976562 C 369.03125 368.976562 369.058594 368.972656 369.078125 368.953125 L 375 364.769531 L 375 364.460938 L 369.035156 368.679688 L 367.917969 367.097656 L 375 355.835938 L 375 355.367188 L 367.761719 366.875 L 361.789062 358.429688 L 369.125 338.320312 C 369.136719 338.289062 369.132812 338.253906 369.121094 338.222656 C 369.105469 338.191406 369.082031 338.171875 369.050781 338.15625 L 361.976562 335.578125 L 375 326.371094 L 375 326.0625 L 361.691406 335.476562 L 345.128906 329.433594 L 359.300781 305.917969 C 359.335938 305.859375 359.316406 305.785156 359.257812 305.75 L 351.660156 301.167969 L 357.179688 292.476562 C 357.199219 292.449219 357.207031 292.414062 357.199219 292.382812 C 357.191406 292.351562 357.171875 292.324219 357.140625 292.304688 L 322.363281 270.222656 C 322.308594 270.183594 322.230469 270.203125 322.191406 270.257812 L 316.152344 279.769531 L 308.042969 274.882812 L 323.976562 258.65625 L 331.878906 267.921875 C 331.898438 267.949219 331.929688 267.960938 331.960938 267.964844 C 331.964844 267.964844 331.96875 267.964844 331.972656 267.964844 C 332.003906 267.964844 332.03125 267.957031 332.054688 267.9375 L 352.601562 250.414062 L 367.082031 262.097656 L 359.113281 270.238281 C 359.089844 270.261719 359.078125 270.292969 359.078125 270.328125 C 359.078125 270.359375 359.09375 270.394531 359.117188 270.414062 L 375 285.957031 L 375 285.609375 L 359.382812 270.324219 L 367.277344 262.253906 L 375 268.484375 L 375 268.164062 L 367.453125 262.074219 L 375 254.363281 L 375 254.007812 L 367.257812 261.917969 L 352.796875 250.25 L 375 231.316406 L 375 230.988281 L 352.597656 250.089844 L 333.992188 235.078125 L 362.292969 210.945312 L 375 221.199219 L 375 220.878906 L 362.484375 210.78125 L 371.628906 202.984375 L 375 206.9375 L 375 206.550781 L 371.738281 202.726562 C 371.714844 202.703125 371.6875 202.683594 371.652344 202.683594 Z M 234.753906 246.363281 L 216.398438 224.835938 L 234.472656 206.371094 L 256.441406 227.871094 Z M 199.550781 297.398438 L 194.199219 292.160156 L 211.492188 264.066406 L 224.398438 272.007812 Z M 361.726562 335.753906 L 368.847656 338.351562 L 361.613281 358.179688 L 351.078125 343.285156 Z M 337.914062 191.277344 L 342.292969 194.8125 L 344.550781 203.085938 L 330.1875 207.003906 L 328.933594 202.40625 Z M 328.742188 202.648438 L 329.980469 207.191406 C 329.988281 207.222656 330.007812 207.25 330.039062 207.269531 C 330.058594 207.277344 330.078125 207.285156 330.101562 207.285156 C 330.113281 207.285156 330.125 207.28125 330.132812 207.28125 L 344.734375 203.296875 C 344.769531 203.289062 344.796875 203.265625 344.8125 203.234375 C 344.828125 203.207031 344.832031 203.171875 344.824219 203.140625 L 342.625 195.078125 L 350.425781 201.371094 L 344.34375 218.042969 L 322.691406 210.144531 Z M 295.054688 212.941406 L 305.558594 232.550781 L 279.753906 246.375 L 273.566406 234.824219 Z M 224.796875 271.960938 L 262.40625 233.53125 C 262.429688 233.503906 262.441406 233.472656 262.441406 233.441406 C 262.441406 233.40625 262.425781 233.375 262.402344 233.351562 L 256.8125 227.882812 L 265.566406 220.417969 L 273.257812 234.777344 L 247.917969 260.589844 C 247.894531 260.613281 247.878906 260.644531 247.878906 260.675781 C 247.878906 260.710938 247.894531 260.742188 247.917969 260.765625 L 252.734375 265.492188 L 234.328125 277.828125 Z M 282.933594 282.0625 L 268.386719 260.363281 L 272.402344 253.695312 L 307.644531 274.933594 L 285.585938 297.398438 L 275.320312 287.320312 L 282.898438 282.238281 C 282.925781 282.21875 282.945312 282.191406 282.953125 282.15625 C 282.960938 282.125 282.953125 282.09375 282.933594 282.0625 Z M 282.65625 282.097656 L 275.136719 287.140625 L 260.757812 273.023438 L 268.246094 260.597656 Z M 287.269531 325.25 L 251.179688 303.5 L 262.847656 295.679688 L 293.910156 314.796875 Z M 294.121094 314.929688 L 302.800781 320.269531 L 296.363281 330.730469 L 287.484375 325.378906 Z M 250.941406 303.355469 L 244.734375 299.617188 L 251.363281 288.609375 L 262.613281 295.535156 Z M 262.84375 295.378906 L 251.492188 288.394531 L 260.625 273.242188 L 274.925781 287.28125 Z M 260.574219 272.839844 L 253.128906 265.53125 L 265.839844 257.011719 L 268.089844 260.371094 Z M 260.441406 273.0625 L 251.28125 288.261719 L 234.5625 277.972656 L 252.917969 265.671875 Z M 217.957031 289.105469 L 234.335938 278.125 L 251.152344 288.476562 L 244.453125 299.59375 C 244.417969 299.652344 244.4375 299.730469 244.496094 299.765625 L 250.710938 303.511719 L 242.9375 308.722656 L 232.710938 294.257812 C 232.691406 294.230469 232.664062 294.210938 232.628906 294.207031 C 232.597656 294.203125 232.5625 294.207031 232.535156 294.226562 L 224.976562 299.574219 Z M 242.730469 308.863281 L 234.773438 314.195312 L 225.113281 299.78125 L 232.578125 294.503906 Z M 205.316406 327.015625 L 195.308594 320.855469 L 224.910156 299.925781 L 234.636719 314.4375 C 234.660156 314.472656 234.703125 314.492188 234.742188 314.492188 C 234.765625 314.492188 234.789062 314.484375 234.8125 314.472656 L 242.875 309.066406 L 250.535156 319.902344 L 235.222656 330.730469 L 212.222656 316.265625 C 212.195312 316.25 212.160156 316.242188 212.128906 316.25 C 212.097656 316.257812 212.066406 316.277344 212.050781 316.308594 Z M 224.109375 338.585938 L 205.527344 327.148438 L 212.195312 316.546875 L 235 330.886719 Z M 233.636719 344.449219 L 224.34375 338.730469 L 235.230469 331.03125 L 240.136719 334.117188 Z M 273 368.679688 L 250.8125 355.023438 L 266.28125 346.734375 L 275.695312 364.300781 Z M 275.847656 364.054688 L 266.445312 346.503906 C 266.414062 346.445312 266.335938 346.421875 266.277344 346.453125 L 250.566406 354.871094 L 233.851562 344.582031 L 240.414062 334.144531 C 240.433594 334.113281 240.4375 334.082031 240.429688 334.050781 C 240.421875 334.015625 240.402344 333.988281 240.375 333.972656 L 235.449219 330.875 L 250.78125 320.035156 C 250.839844 319.992188 250.851562 319.914062 250.8125 319.859375 L 243.082031 308.925781 L 250.949219 303.652344 L 287.136719 325.460938 L 279.597656 337.332031 C 279.582031 337.359375 279.574219 337.394531 279.582031 337.425781 C 279.589844 337.460938 279.609375 337.488281 279.636719 337.507812 L 288.664062 343.238281 Z M 288.796875 343.023438 L 279.875 337.363281 L 287.351562 325.59375 L 296.230469 330.945312 Z M 306.890625 354.515625 L 289.003906 343.15625 L 296.445312 331.074219 L 312.019531 340.457031 Z M 314.441406 359.308594 L 307.105469 354.652344 L 312.234375 340.589844 L 322.429688 346.734375 Z M 322.5625 346.523438 L 312.324219 340.351562 L 319.601562 320.390625 L 335.480469 326.179688 Z M 331.347656 351.816406 L 322.777344 346.652344 L 335.722656 326.269531 L 344.757812 329.566406 Z M 359.023438 305.898438 L 344.890625 329.347656 L 335.859375 326.054688 L 351.527344 301.378906 Z M 322.335938 270.5 L 356.902344 292.449219 L 351.449219 301.039062 L 316.367188 279.898438 Z M 316.234375 280.109375 L 351.3125 301.25 L 335.617188 325.964844 L 319.574219 320.113281 C 319.507812 320.089844 319.4375 320.125 319.410156 320.1875 L 312.105469 340.21875 L 296.578125 330.859375 L 303.078125 320.296875 C 303.097656 320.265625 303.101562 320.234375 303.09375 320.203125 C 303.085938 320.167969 303.066406 320.140625 303.039062 320.125 L 294.253906 314.71875 Z M 316.019531 279.980469 L 294.042969 314.585938 L 263.078125 295.523438 L 275.105469 287.460938 L 285.5 297.664062 C 285.523438 297.6875 285.554688 297.699219 285.585938 297.699219 C 285.617188 297.699219 285.652344 297.6875 285.675781 297.664062 L 307.863281 275.066406 Z M 307.824219 274.75 L 272.425781 253.417969 C 272.398438 253.402344 272.363281 253.394531 272.332031 253.402344 C 272.300781 253.410156 272.273438 253.429688 272.253906 253.460938 L 268.234375 260.132812 L 265.976562 256.765625 C 265.9375 256.710938 265.859375 256.695312 265.804688 256.734375 L 252.945312 265.351562 L 248.183594 260.671875 L 273.382812 235.007812 L 279.59375 246.601562 C 279.617188 246.644531 279.660156 246.667969 279.703125 246.667969 C 279.722656 246.667969 279.746094 246.664062 279.761719 246.652344 L 305.789062 232.710938 C 305.816406 232.695312 305.839844 232.667969 305.847656 232.636719 C 305.859375 232.605469 305.855469 232.570312 305.839844 232.542969 L 295.238281 212.753906 L 298.285156 209.648438 L 328.5625 239.378906 L 316.484375 249.675781 C 316.433594 249.71875 316.425781 249.800781 316.472656 249.851562 L 323.816406 258.464844 Z M 316.742188 249.785156 L 328.742188 239.554688 L 335.6875 246.375 L 323.992188 258.285156 Z M 352.40625 250.253906 L 331.988281 267.664062 L 324.152344 258.476562 L 335.953125 246.460938 C 336 246.410156 336 246.332031 335.949219 246.28125 L 328.933594 239.390625 L 333.796875 235.242188 Z M 333.792969 234.917969 L 314.960938 219.726562 L 322.527344 210.351562 L 344.375 218.320312 C 344.390625 218.328125 344.402344 218.328125 344.417969 218.328125 C 344.46875 218.328125 344.519531 218.296875 344.535156 218.246094 L 350.628906 201.539062 L 362.09375 210.785156 L 333.792969 234.917969 " fill-opacity="1" fill-rule="nonzero"/></g><path fill="#00bf63" d="M 368.941406 312.625 L 375 316.355469 L 375 316.058594 L 369.175781 312.476562 L 375 303.015625 L 375 302.542969 L 368.898438 312.449219 C 368.863281 312.507812 368.882812 312.585938 368.941406 312.625 " fill-opacity="1" fill-rule="nonzero"/></svg>