<svg xmlns="http://www.w3.org/2000/svg" xmlns:xlink="http://www.w3.org/1999/xlink" width="500" zoomAndPan="magnify" viewBox="0 0 375 374.999991" height="500" preserveAspectRatio="xMidYMid meet" version="1.0"><defs><clipPath id="7bd93064c3"><path d="M 45.667969 93 L 329 93 L 329 321 L 45.667969 321 Z M 45.667969 93 " clip-rule="nonzero"/></clipPath></defs><g clip-path="url(#7bd93064c3)"><path fill="#00bf63" d="M 324.6875 196.40625 C 320.9375 191.039062 314.570312 187.96875 307.222656 187.96875 L 296.429688 187.96875 L 296.429688 157.226562 C 296.429688 143.097656 284.9375 131.597656 270.808594 131.597656 L 262.714844 131.597656 L 262.714844 149.664062 L 270.808594 149.664062 C 274.976562 149.664062 278.363281 153.0625 278.363281 157.226562 L 278.363281 187.96875 L 112.804688 187.96875 C 99.941406 187.96875 86.4375 197.433594 82.046875 209.523438 L 63.734375 259.992188 L 63.734375 119.195312 C 63.734375 115.09375 67.195312 111.625 71.296875 111.625 L 142.261719 111.625 C 146.4375 111.625 149.832031 115.023438 149.832031 119.195312 L 149.832031 149.664062 L 187.222656 149.664062 L 187.222656 131.597656 L 167.902344 131.597656 L 167.902344 119.195312 C 167.902344 105.066406 156.402344 93.558594 142.261719 93.558594 L 71.296875 93.558594 C 57.160156 93.558594 45.667969 105.066406 45.667969 119.195312 L 45.667969 294.78125 C 45.667969 308.917969 57.160156 320.417969 71.296875 320.417969 L 270.808594 320.417969 C 281.335938 320.417969 290.375 314.03125 294.316406 304.933594 L 294.324219 304.941406 L 294.351562 304.878906 C 294.433594 304.691406 294.488281 304.492188 294.550781 304.300781 L 326.65625 215.683594 C 329.15625 208.789062 328.445312 201.761719 324.6875 196.40625 Z M 324.6875 196.40625 " fill-opacity="1" fill-rule="nonzero"/></g><path fill="#00bf63" d="M 262.933594 105.511719 L 251.984375 89.675781 C 249.039062 85.410156 244.234375 78.445312 241.261719 74.183594 L 230.320312 58.347656 C 227.367188 54.089844 222.5625 54.089844 219.609375 58.355469 L 208.640625 74.183594 C 205.707031 78.445312 200.890625 85.410156 197.9375 89.675781 L 186.988281 105.511719 C 184.050781 109.765625 185.878906 113.242188 191.054688 113.242188 L 205.273438 113.242188 L 205.273438 156.296875 C 205.273438 161.472656 209.507812 165.71875 214.675781 165.71875 L 235.210938 165.71875 C 240.394531 165.71875 244.621094 161.472656 244.621094 156.296875 L 244.621094 113.242188 L 258.839844 113.242188 C 264.054688 113.242188 265.867188 109.753906 262.933594 105.511719 Z M 262.933594 105.511719 " fill-opacity="1" fill-rule="nonzero"/></svg>