<svg xmlns="http://www.w3.org/2000/svg" xmlns:xlink="http://www.w3.org/1999/xlink" width="469" zoomAndPan="magnify" viewBox="0 0 351.75 122.249994" height="163" preserveAspectRatio="xMidYMid meet" version="1.0"><defs><g/><clipPath id="5077514f42"><path d="M 0.949219 36.5 L 52.398438 36.5 L 52.398438 84.566406 L 0.949219 84.566406 Z M 0.949219 36.5 " clip-rule="nonzero"/></clipPath><clipPath id="abd8832003"><path d="M 7.65625 36.5 L 45.621094 36.5 C 49.328125 36.5 52.328125 39.5 52.328125 43.207031 L 52.328125 77.859375 C 52.328125 81.5625 49.328125 84.566406 45.621094 84.566406 L 7.65625 84.566406 C 3.953125 84.566406 0.949219 81.5625 0.949219 77.859375 L 0.949219 43.207031 C 0.949219 39.5 3.953125 36.5 7.65625 36.5 Z M 7.65625 36.5 " clip-rule="nonzero"/></clipPath><clipPath id="34dfc67e55"><path d="M 0.949219 36.5 L 52.382812 36.5 L 52.382812 84.207031 L 0.949219 84.207031 Z M 0.949219 36.5 " clip-rule="nonzero"/></clipPath><clipPath id="8bea4208b6"><path d="M 7.65625 36.5 L 45.617188 36.5 C 49.320312 36.5 52.324219 39.503906 52.324219 43.207031 L 52.324219 77.855469 C 52.324219 81.5625 49.320312 84.5625 45.617188 84.5625 L 7.65625 84.5625 C 3.953125 84.5625 0.949219 81.5625 0.949219 77.855469 L 0.949219 43.207031 C 0.949219 39.503906 3.953125 36.5 7.65625 36.5 Z M 7.65625 36.5 " clip-rule="nonzero"/></clipPath><clipPath id="42c658fa3a"><path d="M 6 49.839844 L 47 49.839844 L 47 71 L 6 71 Z M 6 49.839844 " clip-rule="nonzero"/></clipPath></defs><g clip-path="url(#5077514f42)"><g clip-path="url(#abd8832003)"><path fill="#ffffff" d="M 0.949219 36.5 L 52.398438 36.5 L 52.398438 84.566406 L 0.949219 84.566406 Z M 0.949219 36.5 " fill-opacity="1" fill-rule="nonzero"/></g></g><g clip-path="url(#34dfc67e55)"><g clip-path="url(#8bea4208b6)"><path stroke-linecap="butt" transform="matrix(0.745427, 0, 0, 0.745427, 0.948179, 36.500366)" fill="none" stroke-linejoin="miter" d="M 8.998968 -0.000490356 L 59.924074 -0.000490356 C 64.891866 -0.000490356 68.921647 4.02929 68.921647 8.997082 L 68.921647 55.478426 C 68.921647 60.451458 64.891866 64.475998 59.924074 64.475998 L 8.998968 64.475998 C 4.031176 64.475998 0.00139518 60.451458 0.00139518 55.478426 L 0.00139518 8.997082 C 0.00139518 4.02929 4.031176 -0.000490356 8.998968 -0.000490356 Z M 8.998968 -0.000490356 " stroke="#ffffff" stroke-width="4" stroke-opacity="1" stroke-miterlimit="4"/></g></g><g clip-path="url(#42c658fa3a)"><path fill="#00bf63" d="M 36.464844 49.957031 C 34.984375 49.945312 33.574219 50.246094 32.226562 50.863281 C 30.882812 51.476562 29.730469 52.347656 28.765625 53.472656 L 27.277344 55.1875 L 30.605469 59.03125 L 32.566406 56.765625 C 33.054688 56.199219 33.636719 55.757812 34.320312 55.445312 C 35 55.136719 35.714844 54.980469 36.464844 54.988281 C 36.796875 54.980469 37.125 55.011719 37.453125 55.070312 C 37.777344 55.132812 38.09375 55.222656 38.402344 55.347656 C 38.710938 55.472656 39.003906 55.625 39.28125 55.804688 C 39.558594 55.988281 39.8125 56.195312 40.050781 56.429688 C 40.285156 56.660156 40.496094 56.914062 40.683594 57.191406 C 40.867188 57.464844 41.023438 57.753906 41.152344 58.0625 C 41.28125 58.367188 41.378906 58.683594 41.441406 59.007812 C 41.507812 59.332031 41.539062 59.660156 41.539062 59.992188 C 41.539062 60.324219 41.507812 60.652344 41.441406 60.976562 C 41.378906 61.304688 41.28125 61.617188 41.152344 61.925781 C 41.023438 62.230469 40.867188 62.519531 40.683594 62.796875 C 40.496094 63.070312 40.285156 63.324219 40.050781 63.558594 C 39.8125 63.789062 39.558594 63.996094 39.28125 64.179688 C 39.003906 64.363281 38.710938 64.515625 38.402344 64.636719 C 38.09375 64.761719 37.777344 64.855469 37.453125 64.914062 C 37.125 64.976562 36.796875 65.003906 36.464844 65 C 35.71875 65.003906 35.003906 64.851562 34.328125 64.542969 C 33.648438 64.230469 33.0625 63.792969 32.578125 63.226562 C 25.292969 54.8125 28.753906 58.820312 24.125 53.464844 C 23.164062 52.34375 22.007812 51.472656 20.664062 50.859375 C 19.316406 50.246094 17.90625 49.945312 16.425781 49.957031 C 15.765625 49.949219 15.109375 50.011719 14.460938 50.136719 C 13.808594 50.261719 13.175781 50.449219 12.566406 50.699219 C 11.953125 50.949219 11.371094 51.257812 10.816406 51.621094 C 10.265625 51.988281 9.753906 52.40625 9.285156 52.871094 C 8.816406 53.335938 8.394531 53.84375 8.027344 54.394531 C 7.65625 54.945312 7.34375 55.523438 7.089844 56.136719 C 6.835938 56.746094 6.644531 57.378906 6.515625 58.027344 C 6.386719 58.675781 6.320312 59.332031 6.320312 59.992188 C 6.320312 60.65625 6.386719 61.3125 6.515625 61.960938 C 6.644531 62.609375 6.835938 63.238281 7.089844 63.851562 C 7.34375 64.460938 7.65625 65.042969 8.027344 65.589844 C 8.394531 66.140625 8.816406 66.648438 9.285156 67.117188 C 9.753906 67.582031 10.265625 68 10.816406 68.363281 C 11.371094 68.730469 11.953125 69.035156 12.566406 69.285156 C 13.175781 69.539062 13.808594 69.726562 14.460938 69.851562 C 15.109375 69.976562 15.765625 70.035156 16.425781 70.03125 C 17.90625 70.042969 19.320312 69.738281 20.664062 69.125 C 22.011719 68.507812 23.164062 67.640625 24.125 66.515625 L 25.617188 64.796875 L 22.289062 60.957031 L 20.328125 63.21875 C 19.839844 63.789062 19.253906 64.230469 18.574219 64.539062 C 17.890625 64.851562 17.175781 65.003906 16.425781 65 C 16.09375 65.003906 15.765625 64.976562 15.441406 64.914062 C 15.113281 64.855469 14.796875 64.761719 14.492188 64.636719 C 14.183594 64.515625 13.890625 64.363281 13.613281 64.179688 C 13.335938 63.996094 13.078125 63.789062 12.84375 63.558594 C 12.605469 63.324219 12.394531 63.070312 12.210938 62.796875 C 12.023438 62.519531 11.867188 62.230469 11.738281 61.925781 C 11.613281 61.617188 11.515625 61.304688 11.449219 60.976562 C 11.382812 60.652344 11.351562 60.324219 11.351562 59.992188 C 11.351562 59.660156 11.382812 59.332031 11.449219 59.007812 C 11.515625 58.683594 11.613281 58.367188 11.738281 58.0625 C 11.867188 57.753906 12.023438 57.464844 12.210938 57.191406 C 12.394531 56.914062 12.605469 56.660156 12.84375 56.429688 C 13.078125 56.195312 13.335938 55.988281 13.613281 55.804688 C 13.890625 55.625 14.183594 55.472656 14.492188 55.347656 C 14.796875 55.222656 15.113281 55.132812 15.441406 55.070312 C 15.765625 55.011719 16.09375 54.980469 16.425781 54.988281 C 17.175781 54.980469 17.886719 55.132812 18.566406 55.445312 C 19.246094 55.753906 19.828125 56.191406 20.3125 56.761719 C 27.601562 65.175781 24.140625 61.164062 28.765625 66.523438 C 29.039062 66.84375 29.328125 67.152344 29.640625 67.4375 C 29.949219 67.722656 30.277344 67.992188 30.621094 68.238281 C 30.964844 68.484375 31.320312 68.707031 31.691406 68.90625 C 32.0625 69.109375 32.445312 69.285156 32.839844 69.4375 C 33.234375 69.589844 33.636719 69.71875 34.046875 69.820312 C 34.457031 69.921875 34.871094 70 35.289062 70.050781 C 35.707031 70.101562 36.128906 70.125 36.550781 70.121094 C 36.972656 70.117188 37.394531 70.089844 37.8125 70.035156 C 38.234375 69.980469 38.644531 69.898438 39.054688 69.789062 C 39.464844 69.683594 39.863281 69.550781 40.253906 69.390625 C 40.648438 69.234375 41.027344 69.050781 41.398438 68.847656 C 41.765625 68.640625 42.121094 68.414062 42.460938 68.164062 C 42.800781 67.914062 43.125 67.644531 43.429688 67.351562 C 43.738281 67.0625 44.023438 66.753906 44.292969 66.425781 C 44.558594 66.097656 44.804688 65.757812 45.03125 65.398438 C 45.253906 65.042969 45.457031 64.671875 45.632812 64.289062 C 45.8125 63.90625 45.964844 63.511719 46.09375 63.109375 C 46.222656 62.707031 46.324219 62.296875 46.402344 61.882812 C 46.480469 61.46875 46.53125 61.050781 46.554688 60.628906 C 46.582031 60.207031 46.578125 59.785156 46.550781 59.363281 C 46.523438 58.941406 46.46875 58.523438 46.386719 58.109375 C 46.304688 57.695312 46.199219 57.285156 46.066406 56.886719 C 45.933594 56.484375 45.777344 56.09375 45.597656 55.710938 C 45.414062 55.328125 45.210938 54.960938 44.984375 54.605469 C 44.757812 54.25 44.507812 53.910156 44.238281 53.585938 C 43.964844 53.257812 43.675781 52.953125 43.367188 52.664062 C 43.058594 52.378906 42.734375 52.109375 42.390625 51.863281 C 42.046875 51.613281 41.691406 51.390625 41.320312 51.1875 C 40.949219 50.984375 40.566406 50.808594 40.175781 50.652344 C 39.78125 50.5 39.378906 50.367188 38.972656 50.265625 C 38.5625 50.160156 38.148438 50.082031 37.726562 50.03125 C 37.308594 49.980469 36.886719 49.953125 36.464844 49.957031 Z M 36.464844 49.957031 " fill-opacity="1" fill-rule="nonzero"/></g><g fill="#ffffff" fill-opacity="1"><g transform="translate(57.02322, 78.293085)"><g><path d="M 15.984375 0.375 C 13.515625 0.375 11.304688 -0.0625 9.359375 -0.9375 C 7.410156 -1.8125 5.878906 -3.023438 4.765625 -4.578125 C 3.660156 -6.140625 3.09375 -7.941406 3.0625 -9.984375 L 8.265625 -9.984375 C 8.441406 -8.222656 9.164062 -6.742188 10.4375 -5.546875 C 11.707031 -4.347656 13.554688 -3.75 15.984375 -3.75 C 18.316406 -3.75 20.148438 -4.332031 21.484375 -5.5 C 22.828125 -6.664062 23.5 -8.160156 23.5 -9.984375 C 23.5 -11.410156 23.101562 -12.570312 22.3125 -13.46875 C 21.53125 -14.363281 20.546875 -15.039062 19.359375 -15.5 C 18.179688 -15.96875 16.59375 -16.472656 14.59375 -17.015625 C 12.125 -17.648438 10.144531 -18.289062 8.65625 -18.9375 C 7.175781 -19.582031 5.90625 -20.59375 4.84375 -21.96875 C 3.789062 -23.34375 3.265625 -25.195312 3.265625 -27.53125 C 3.265625 -29.5625 3.785156 -31.363281 4.828125 -32.9375 C 5.867188 -34.519531 7.328125 -35.738281 9.203125 -36.59375 C 11.078125 -37.445312 13.234375 -37.875 15.671875 -37.875 C 19.171875 -37.875 22.039062 -37 24.28125 -35.25 C 26.519531 -33.5 27.78125 -31.175781 28.0625 -28.28125 L 22.703125 -28.28125 C 22.515625 -29.707031 21.757812 -30.96875 20.4375 -32.0625 C 19.113281 -33.15625 17.363281 -33.703125 15.1875 -33.703125 C 13.144531 -33.703125 11.476562 -33.171875 10.1875 -32.109375 C 8.90625 -31.054688 8.265625 -29.582031 8.265625 -27.6875 C 8.265625 -26.320312 8.644531 -25.210938 9.40625 -24.359375 C 10.175781 -23.503906 11.125 -22.851562 12.25 -22.40625 C 13.382812 -21.957031 14.972656 -21.445312 17.015625 -20.875 C 19.484375 -20.195312 21.46875 -19.523438 22.96875 -18.859375 C 24.46875 -18.203125 25.753906 -17.179688 26.828125 -15.796875 C 27.898438 -14.421875 28.4375 -12.550781 28.4375 -10.1875 C 28.4375 -8.363281 27.953125 -6.644531 26.984375 -5.03125 C 26.023438 -3.425781 24.597656 -2.125 22.703125 -1.125 C 20.804688 -0.125 18.566406 0.375 15.984375 0.375 Z M 15.984375 0.375 "/></g></g></g><g fill="#ffffff" fill-opacity="1"><g transform="translate(88.521061, 78.293085)"><g><path d="M 2.3125 -14.75 C 2.3125 -17.789062 2.914062 -20.445312 4.125 -22.71875 C 5.34375 -24.988281 7.035156 -26.75 9.203125 -28 C 11.367188 -29.257812 13.847656 -29.890625 16.640625 -29.890625 C 20.242188 -29.890625 23.21875 -29.007812 25.5625 -27.25 C 27.90625 -25.5 29.453125 -23.066406 30.203125 -19.953125 L 24.953125 -19.953125 C 24.453125 -21.742188 23.476562 -23.15625 22.03125 -24.1875 C 20.582031 -25.226562 18.785156 -25.75 16.640625 -25.75 C 13.847656 -25.75 11.59375 -24.789062 9.875 -22.875 C 8.15625 -20.96875 7.296875 -18.257812 7.296875 -14.75 C 7.296875 -11.207031 8.15625 -8.472656 9.875 -6.546875 C 11.59375 -4.617188 13.847656 -3.65625 16.640625 -3.65625 C 18.785156 -3.65625 20.570312 -4.15625 22 -5.15625 C 23.425781 -6.15625 24.410156 -7.582031 24.953125 -9.4375 L 30.203125 -9.4375 C 29.421875 -6.4375 27.847656 -4.03125 25.484375 -2.21875 C 23.128906 -0.414062 20.179688 0.484375 16.640625 0.484375 C 13.847656 0.484375 11.367188 -0.140625 9.203125 -1.390625 C 7.035156 -2.640625 5.34375 -4.410156 4.125 -6.703125 C 2.914062 -8.992188 2.3125 -11.675781 2.3125 -14.75 Z M 2.3125 -14.75 "/></g></g></g><g fill="#ffffff" fill-opacity="1"><g transform="translate(121.092079, 78.293085)"><g><path d="M 18.71875 -29.9375 C 20.9375 -29.9375 22.941406 -29.460938 24.734375 -28.515625 C 26.523438 -27.566406 27.929688 -26.144531 28.953125 -24.25 C 29.972656 -22.351562 30.484375 -20.046875 30.484375 -17.328125 L 30.484375 0 L 25.640625 0 L 25.640625 -16.640625 C 25.640625 -19.566406 24.90625 -21.804688 23.4375 -23.359375 C 21.976562 -24.921875 19.976562 -25.703125 17.4375 -25.703125 C 14.863281 -25.703125 12.816406 -24.894531 11.296875 -23.28125 C 9.773438 -21.675781 9.015625 -19.335938 9.015625 -16.265625 L 9.015625 0 L 4.125 0 L 4.125 -39.703125 L 9.015625 -39.703125 L 9.015625 -25.21875 C 9.984375 -26.71875 11.316406 -27.878906 13.015625 -28.703125 C 14.710938 -29.523438 16.613281 -29.9375 18.71875 -29.9375 Z M 18.71875 -29.9375 "/></g></g></g><g fill="#ffffff" fill-opacity="1"><g transform="translate(155.43385, 78.293085)"><g><path d="M 30.953125 -15.828125 C 30.953125 -14.898438 30.898438 -13.914062 30.796875 -12.875 L 7.296875 -12.875 C 7.472656 -9.976562 8.460938 -7.71875 10.265625 -6.09375 C 12.078125 -4.46875 14.269531 -3.65625 16.84375 -3.65625 C 18.957031 -3.65625 20.71875 -4.144531 22.125 -5.125 C 23.539062 -6.101562 24.535156 -7.414062 25.109375 -9.0625 L 30.375 -9.0625 C 29.582031 -6.238281 28.003906 -3.941406 25.640625 -2.171875 C 23.285156 -0.398438 20.351562 0.484375 16.84375 0.484375 C 14.050781 0.484375 11.554688 -0.140625 9.359375 -1.390625 C 7.160156 -2.640625 5.4375 -4.414062 4.1875 -6.71875 C 2.9375 -9.03125 2.3125 -11.707031 2.3125 -14.75 C 2.3125 -17.789062 2.914062 -20.457031 4.125 -22.75 C 5.34375 -25.039062 7.050781 -26.800781 9.25 -28.03125 C 11.457031 -29.269531 13.988281 -29.890625 16.84375 -29.890625 C 19.632812 -29.890625 22.101562 -29.28125 24.25 -28.0625 C 26.394531 -26.84375 28.046875 -25.171875 29.203125 -23.046875 C 30.367188 -20.921875 30.953125 -18.515625 30.953125 -15.828125 Z M 25.921875 -16.84375 C 25.921875 -18.707031 25.507812 -20.304688 24.6875 -21.640625 C 23.863281 -22.984375 22.742188 -24.003906 21.328125 -24.703125 C 19.910156 -25.398438 18.347656 -25.75 16.640625 -25.75 C 14.171875 -25.75 12.066406 -24.960938 10.328125 -23.390625 C 8.585938 -21.816406 7.59375 -19.632812 7.34375 -16.84375 Z M 25.921875 -16.84375 "/></g></g></g><g fill="#ffffff" fill-opacity="1"><g transform="translate(188.702443, 78.293085)"><g><path d="M 2.3125 -14.8125 C 2.3125 -17.8125 2.914062 -20.445312 4.125 -22.71875 C 5.34375 -24.988281 7.015625 -26.75 9.140625 -28 C 11.273438 -29.257812 13.664062 -29.890625 16.3125 -29.890625 C 18.601562 -29.890625 20.726562 -29.359375 22.6875 -28.296875 C 24.65625 -27.242188 26.160156 -25.859375 27.203125 -24.140625 L 27.203125 -39.703125 L 32.140625 -39.703125 L 32.140625 0 L 27.203125 0 L 27.203125 -5.53125 C 26.234375 -3.769531 24.800781 -2.328125 22.90625 -1.203125 C 21.007812 -0.078125 18.796875 0.484375 16.265625 0.484375 C 13.648438 0.484375 11.273438 -0.15625 9.140625 -1.4375 C 7.015625 -2.726562 5.34375 -4.535156 4.125 -6.859375 C 2.914062 -9.191406 2.3125 -11.84375 2.3125 -14.8125 Z M 27.203125 -14.75 C 27.203125 -16.96875 26.753906 -18.898438 25.859375 -20.546875 C 24.960938 -22.191406 23.753906 -23.453125 22.234375 -24.328125 C 20.710938 -25.203125 19.039062 -25.640625 17.21875 -25.640625 C 15.394531 -25.640625 13.734375 -25.210938 12.234375 -24.359375 C 10.734375 -23.503906 9.535156 -22.253906 8.640625 -20.609375 C 7.742188 -18.960938 7.296875 -17.03125 7.296875 -14.8125 C 7.296875 -12.550781 7.742188 -10.585938 8.640625 -8.921875 C 9.535156 -7.265625 10.734375 -6 12.234375 -5.125 C 13.734375 -4.25 15.394531 -3.8125 17.21875 -3.8125 C 19.039062 -3.8125 20.710938 -4.25 22.234375 -5.125 C 23.753906 -6 24.960938 -7.265625 25.859375 -8.921875 C 26.753906 -10.585938 27.203125 -12.53125 27.203125 -14.75 Z M 27.203125 -14.75 "/></g></g></g><g fill="#ffffff" fill-opacity="1"><g transform="translate(224.975936, 78.293085)"><g><path d="M 30.203125 -29.40625 L 30.203125 0 L 25.328125 0 L 25.328125 -4.34375 C 24.398438 -2.84375 23.101562 -1.671875 21.4375 -0.828125 C 19.769531 0.00390625 17.9375 0.421875 15.9375 0.421875 C 13.644531 0.421875 11.585938 -0.0507812 9.765625 -1 C 7.941406 -1.945312 6.5 -3.367188 5.4375 -5.265625 C 4.382812 -7.160156 3.859375 -9.46875 3.859375 -12.1875 L 3.859375 -29.40625 L 8.6875 -29.40625 L 8.6875 -12.828125 C 8.6875 -9.929688 9.421875 -7.703125 10.890625 -6.140625 C 12.359375 -4.585938 14.363281 -3.8125 16.90625 -3.8125 C 19.507812 -3.8125 21.5625 -4.613281 23.0625 -6.21875 C 24.570312 -7.832031 25.328125 -10.175781 25.328125 -13.25 L 25.328125 -29.40625 Z M 30.203125 -29.40625 "/></g></g></g><g fill="#ffffff" fill-opacity="1"><g transform="translate(259.317707, 78.293085)"><g><path d="M 9.015625 -39.703125 L 9.015625 0 L 4.125 0 L 4.125 -39.703125 Z M 9.015625 -39.703125 "/></g></g></g><g fill="#ffffff" fill-opacity="1"><g transform="translate(272.517821, 78.293085)"><g><path d="M 26.234375 -8.3125 L 9.921875 -8.3125 L 6.921875 0 L 1.765625 0 L 15.296875 -37.1875 L 20.921875 -37.1875 L 34.390625 0 L 29.25 0 Z M 24.84375 -12.28125 L 18.078125 -31.171875 L 11.328125 -12.28125 Z M 24.84375 -12.28125 "/></g></g></g><g fill="#ffffff" fill-opacity="1"><g transform="translate(308.684009, 78.293085)"><g><path d="M 9.015625 -37.40625 L 9.015625 0 L 4.125 0 L 4.125 -37.40625 Z M 9.015625 -37.40625 "/></g></g></g></svg>